<svg width="209" height="40" viewBox="0 0 209 40" fill="none" xmlns="http://www.w3.org/2000/svg">
<path d="M10.8623 25.124C16.1167 25.124 19.8053 22.4097 19.8053 17.5728V17.5033C19.8053 13.2579 17.0215 11.4832 12.0802 10.1957C7.86966 9.117 6.82573 8.59504 6.82573 6.99434V6.92475C6.82573 5.74162 7.90446 4.80209 9.95753 4.80209C12.0106 4.80209 14.1333 5.70683 16.2907 7.20313L19.0745 3.16659C16.6039 1.18312 13.5765 0.0695945 10.0271 0.0695945C5.05105 0.0695945 1.50168 2.9926 1.50168 7.41192V7.48151C1.50168 12.3184 4.66827 13.6755 9.57475 14.9282C13.6461 15.9722 14.4812 16.6681 14.4812 18.0252V18.0948C14.4812 19.5215 13.1589 20.3915 10.9667 20.3915C8.18284 20.3915 5.88619 19.2431 3.69394 17.4337L0.527344 21.2266C3.45035 23.8364 7.17371 25.124 10.8623 25.124Z" fill="black"/>
<path d="M28.1793 24.776H33.5381V0.417571H28.1793V24.776Z" fill="black"/>
<path d="M43.1053 24.776H48.3946V9.29099L60.191 24.776H64.7495V0.417571H59.4603V15.4154L48.0466 0.417571H43.1053V24.776Z" fill="black"/>
<path d="M85.8035 25.1935C90.2576 25.1935 93.7026 23.4537 96.208 21.331V10.7525H85.6295V15.3806H91.0232V18.8604C89.6661 19.8347 87.9262 20.3219 85.9775 20.3219C81.6626 20.3219 78.6004 17.0509 78.6004 12.5968V12.5272C78.6004 8.38625 81.6974 4.94128 85.5947 4.94128C88.4133 4.94128 90.0836 5.84602 91.9627 7.41192L95.3381 3.34058C92.7979 1.18312 90.1532 0 85.7687 0C78.3916 0 72.9979 5.67203 72.9979 12.5968V12.6664C72.9979 19.8695 78.2176 25.1935 85.8035 25.1935Z" fill="black"/>
<path d="M110.176 24.776H115.535V5.35885H122.947V0.417571H102.764V5.35885H110.176V24.776Z" fill="black"/>
<path d="M130.548 24.776H149.095V20.0087H135.872V14.8934H147.356V10.1261H135.872V5.18486H148.921V0.417571H130.548V24.776Z" fill="black"/>
<path d="M168.753 25.1935C173.451 25.1935 176.235 23.5233 178.74 20.8438L175.33 17.3989C173.416 19.1387 171.711 20.2523 168.927 20.2523C164.752 20.2523 161.863 16.7725 161.863 12.5968V12.5272C161.863 8.35145 164.821 4.94128 168.927 4.94128C171.363 4.94128 173.277 5.98521 175.156 7.6903L178.566 3.75815C176.305 1.5311 173.555 0 168.962 0C161.481 0 156.261 5.67203 156.261 12.5968V12.6664C156.261 19.6607 161.585 25.1935 168.753 25.1935Z" fill="black"/>
<path d="M186.51 24.776H191.869V14.9978H201.751V24.776H207.11V0.417571H201.751V10.0565H191.869V0.417571H186.51V24.776Z" fill="black"/>
<rect y="35.6504" width="100.043" height="4.34972" fill="#C7DC6D"/>
<rect x="100.043" y="35.6504" width="108.018" height="4.34972" fill="#3B86BC"/>
</svg>
