<svg width="343" height="199" viewBox="0 0 343 199" fill="none" xmlns="http://www.w3.org/2000/svg">
<path d="M324.703 120.72C312.588 152.088 289.812 179.569 258.175 191.646C254.061 193.214 249.859 194.545 245.592 195.631C223.02 201.386 198.327 199.384 177.521 188.898C168.69 184.444 160.637 178.558 151.775 174.168C142.912 169.778 132.791 166.905 123.145 169.072C114.839 170.938 107.832 176.285 100.776 181.048C84.1435 192.278 64.1444 201.164 44.4492 197.307C35.3866 195.535 26.4626 190.625 22.2538 182.418C12.9513 164.274 30.4954 142.702 26.9424 122.637C24.6687 109.794 14.284 100.177 7.82821 88.8437C-3.2202 69.4577 -1.91412 43.7065 11.0401 25.5413C23.9943 7.37603 47.909 -2.25967 69.8352 1.86116C96.5726 6.88825 116.788 29.5155 142.787 37.5226C159.046 42.5257 176.7 41.033 192.229 34.444C217.319 23.7954 251.789 7.464 280.024 10.1241C295.039 11.5395 309.766 18.2032 319.676 29.5821C332.204 43.9464 335.959 64.34 333.87 83.2809C332.435 96.1026 329.354 108.686 324.703 120.72Z" fill="url(#paint0_linear_419_1192)"/>
<path d="M332.764 145.531C332.207 145.53 331.652 145.463 331.111 145.331C329.401 144.91 327.915 143.853 326.958 142.374C326 140.895 325.644 139.107 325.96 137.374C326.277 135.641 327.243 134.094 328.661 133.049C330.08 132.005 331.843 131.541 333.592 131.752C335.341 131.964 336.943 132.835 338.072 134.188C339.2 135.54 339.769 137.273 339.664 139.031C339.558 140.79 338.785 142.442 337.503 143.649C336.22 144.857 334.526 145.53 332.764 145.531ZM332.764 134.821C331.848 134.824 330.964 135.163 330.28 135.772C329.596 136.382 329.158 137.221 329.049 138.131C328.94 139.04 329.168 139.959 329.689 140.712C330.21 141.466 330.989 142.003 331.879 142.223C332.394 142.347 332.93 142.36 333.45 142.262C333.971 142.164 334.465 141.957 334.9 141.654C335.335 141.352 335.701 140.96 335.973 140.506C336.246 140.052 336.42 139.545 336.483 139.019C336.545 138.493 336.496 137.96 336.338 137.454C336.18 136.948 335.917 136.482 335.566 136.085C335.214 135.689 334.783 135.371 334.3 135.153C333.817 134.935 333.294 134.822 332.764 134.821Z" fill="#E7F6FF"/>
<path d="M326.453 152.863C326.846 151.242 325.85 149.609 324.229 149.216C322.608 148.823 320.976 149.819 320.583 151.44C320.19 153.061 321.185 154.693 322.806 155.086C324.427 155.479 326.06 154.484 326.453 152.863Z" fill="#E7F6FF"/>
<path d="M14.7105 144.872C12.8797 144.832 11.1386 144.072 9.86513 142.756C8.59166 141.44 7.88861 139.675 7.90862 137.844C7.92862 136.012 8.67006 134.263 9.97198 132.975C11.2739 131.688 13.0312 130.965 14.8624 130.965C16.6937 130.965 18.451 131.688 19.7529 132.975C21.0548 134.263 21.7962 136.012 21.8163 137.844C21.8363 139.675 21.1332 141.44 19.8597 142.756C18.5863 144.072 16.8451 144.832 15.0144 144.872H14.7105ZM14.7105 134.165H14.5532C13.5645 134.186 12.624 134.597 11.9361 135.308C11.2482 136.018 10.8684 136.971 10.8791 137.96C10.8898 138.949 11.2902 139.894 11.9933 140.59C12.6964 141.285 13.6455 141.675 14.6345 141.675C15.6236 141.675 16.5727 141.285 17.2758 140.59C17.9789 139.894 18.3793 138.949 18.39 137.96C18.4007 136.971 18.0209 136.018 17.333 135.308C16.6451 134.597 15.7046 134.186 14.7158 134.165H14.7105Z" fill="#E7F6FF"/>
<path d="M9.75209 156.542C11.4184 156.471 12.711 155.061 12.6391 153.395C12.5672 151.729 11.1581 150.436 9.49179 150.508C7.82545 150.58 6.53288 151.989 6.60476 153.655C6.67664 155.322 8.08575 156.614 9.75209 156.542Z" fill="#E7F6FF"/>
<path d="M189.003 32.4398C187.344 32.4413 185.739 31.8487 184.478 30.7691C183.218 29.6896 182.386 28.1945 182.132 26.5546C181.879 24.9146 182.221 23.238 183.097 21.8284C183.972 20.4187 185.323 19.3692 186.906 18.8696C188.488 18.37 190.197 18.4535 191.724 19.1049C193.25 19.7563 194.493 20.9326 195.227 22.4209C195.961 23.9091 196.138 25.611 195.726 27.2185C195.314 28.826 194.34 30.2328 192.98 31.1844C191.814 32.0002 190.426 32.4384 189.003 32.4398ZM188.982 21.7353C188.011 21.7343 187.077 22.108 186.375 22.7786C185.673 23.4492 185.256 24.365 185.213 25.335C185.169 26.3049 185.502 27.2543 186.141 27.9853C186.78 28.7162 187.677 29.1722 188.644 29.2584C189.611 29.3445 190.574 29.0541 191.332 28.4476C192.09 27.8412 192.585 26.9655 192.714 26.0031C192.842 25.0406 192.594 24.0658 192.022 23.2816C191.449 22.4975 190.596 21.9645 189.64 21.7939C189.423 21.7552 189.203 21.7355 188.982 21.7353Z" fill="#E7F6FF"/>
<path d="M174.825 32.0595C176.191 31.1018 176.522 29.2185 175.564 27.8529C174.606 26.4873 172.723 26.1566 171.357 27.1142C169.992 28.0718 169.661 29.9552 170.619 31.3208C171.576 32.6864 173.46 33.0171 174.825 32.0595Z" fill="#E7F6FF"/>
<path d="M342.779 68.2636C342.779 65.3327 341.615 62.5218 339.543 60.4494C337.47 58.3769 334.659 57.2126 331.728 57.2126C331.483 57.2126 331.241 57.2126 331.001 57.2366C331.017 56.9967 331.025 56.7541 331.025 56.5089C331.024 54.9382 330.689 53.3857 330.042 51.9547C329.394 50.5237 328.449 49.2473 327.269 48.2104C326.089 47.1735 324.702 46.4 323.2 45.9414C321.698 45.4829 320.115 45.3498 318.557 45.5511C317 45.7524 315.503 46.2834 314.166 47.1088C312.83 47.9342 311.685 49.035 310.808 50.3377C309.93 51.6405 309.341 53.1153 309.078 54.6638C308.815 56.2124 308.886 57.7992 309.285 59.3183C307.949 58.3497 306.414 57.6924 304.791 57.3948C303.168 57.0971 301.499 57.1665 299.907 57.598C298.314 58.0295 296.839 58.8121 295.588 59.8884C294.338 60.9646 293.344 62.3072 292.68 63.8176C292.016 65.328 291.699 66.9679 291.752 68.617C291.804 70.266 292.226 71.8823 292.984 73.3473C293.743 74.8123 294.82 76.0888 296.137 77.0832C297.454 78.0775 298.976 78.7644 300.593 79.0935C301.253 80.8441 302.347 82.3985 303.772 83.611C305.197 84.8234 306.906 85.6543 308.74 86.0256C310.574 86.3969 312.472 86.2966 314.256 85.734C316.04 85.1715 317.653 84.1651 318.942 82.8092C320.261 83.8049 321.787 84.492 323.407 84.82C325.027 85.148 326.699 85.1085 328.302 84.7044C329.904 84.3003 331.396 83.5419 332.667 82.4851C333.937 81.4282 334.955 80.0998 335.644 78.5977C337.741 77.8026 339.547 76.3882 340.822 74.5424C342.096 72.6966 342.779 70.5067 342.779 68.2636Z" fill="white"/>
<path d="M51.0307 41.6996C51.0321 40.2477 50.7473 38.8097 50.1928 37.4679C49.6382 36.126 48.8246 34.9066 47.7986 33.8794C46.7725 32.8521 45.5541 32.0371 44.213 31.4809C42.8718 30.9247 41.4342 30.6382 39.9822 30.6379C39.737 30.6379 39.4945 30.6379 39.2546 30.6619C39.2706 30.422 39.2786 30.1794 39.2786 29.9342C39.2783 28.3635 38.9431 26.811 38.2956 25.38C37.648 23.949 36.7028 22.6726 35.523 21.6357C34.3433 20.5988 32.9561 19.8253 31.4538 19.3667C29.9516 18.9082 28.3688 18.7751 26.8111 18.9764C25.2534 19.1777 23.7565 19.7087 22.4202 20.5341C21.0839 21.3595 19.9389 22.4602 19.0614 23.763C18.184 25.0657 17.5944 26.5406 17.3319 28.0891C17.0693 29.6377 17.1399 31.2244 17.5389 32.7436C16.2033 31.775 14.6677 31.1177 13.0449 30.8201C11.4221 30.5224 9.75328 30.5918 8.16083 31.0233C6.56838 31.4548 5.09276 32.2374 3.84224 33.3137C2.59173 34.3899 1.59807 35.7325 0.934172 37.2429C0.270277 38.7533 -0.0470005 40.3932 0.00562328 42.0423C0.0582471 43.6913 0.479437 45.3076 1.23828 46.7726C1.99713 48.2376 3.07437 49.5141 4.39096 50.5085C5.70755 51.5028 7.23007 52.1897 8.84679 52.5188C9.5075 54.2679 10.6012 55.8207 12.0255 57.032C13.4498 58.2433 15.1582 59.0734 16.9907 59.4447C18.8231 59.8159 20.7199 59.7161 22.5033 59.1547C24.2868 58.5932 25.8986 57.5885 27.1879 56.2345C28.5071 57.2301 30.0327 57.9173 31.6526 58.2453C33.2724 58.5733 34.9452 58.5338 36.5478 58.1297C38.1503 57.7256 39.6418 56.9672 40.9125 55.9104C42.1831 54.8535 43.2006 53.5251 43.8898 52.023C45.9866 51.2294 47.7924 49.817 49.0678 47.9732C50.3431 46.1295 51.0277 43.9415 51.0307 41.6996Z" fill="white"/>
<path d="M254.336 198.945H95.3398V195.479H254.336C254.795 195.479 255.236 195.662 255.561 195.987C255.886 196.312 256.068 196.753 256.068 197.212C256.068 197.672 255.886 198.112 255.561 198.437C255.236 198.762 254.795 198.945 254.336 198.945Z" fill="#426572"/>
<path d="M88.227 198.945H78.506C78.0465 198.945 77.6058 198.762 77.2809 198.437C76.956 198.112 76.7734 197.672 76.7734 197.212C76.7734 196.753 76.956 196.312 77.2809 195.987C77.6058 195.662 78.0465 195.479 78.506 195.479H88.227C88.6865 195.479 89.1272 195.662 89.4521 195.987C89.777 196.312 89.9596 196.753 89.9596 197.212C89.9596 197.672 89.777 198.112 89.4521 198.437C89.1272 198.762 88.6865 198.945 88.227 198.945Z" fill="#426572"/>
<path d="M72.197 198.945H69.0997C68.6402 198.945 68.1996 198.762 67.8746 198.437C67.5497 198.112 67.3672 197.672 67.3672 197.212C67.3672 196.753 67.5497 196.312 67.8746 195.987C68.1996 195.662 68.6402 195.479 69.0997 195.479H72.197C72.6565 195.479 73.0972 195.662 73.4221 195.987C73.7471 196.312 73.9296 196.753 73.9296 197.212C73.9296 197.672 73.7471 198.112 73.4221 198.437C73.0972 198.762 72.6565 198.945 72.197 198.945Z" fill="#426572"/>
<path d="M310.086 198.945H261.217V195.479H310.086C310.545 195.479 310.986 195.662 311.311 195.987C311.636 196.312 311.818 196.753 311.818 197.212C311.818 197.672 311.636 198.112 311.311 198.437C310.986 198.762 310.545 198.945 310.086 198.945Z" fill="#426572"/>
<path d="M60.2407 198.945H11.3691V195.479H60.2407C60.7002 195.479 61.1409 195.662 61.4658 195.987C61.7907 196.312 61.9732 196.753 61.9732 197.212C61.9732 197.672 61.7907 198.112 61.4658 198.437C61.1409 198.762 60.7002 198.945 60.2407 198.945Z" fill="#426572"/>
<path d="M189.782 47.5153V197.4H27.4121V47.5153C27.4149 46.7039 27.7385 45.9265 28.3122 45.3528C28.886 44.779 29.6633 44.4554 30.4747 44.4526H186.717C186.901 44.4527 187.085 44.4696 187.266 44.5033C187.971 44.6332 188.608 45.0053 189.068 45.5553C189.527 46.1053 189.78 46.7986 189.782 47.5153Z" fill="white"/>
<path d="M29.9656 59.2594H190.291V48.4908L187.226 44.4526H46.8167H30.4774L27.9238 48.4908V59.2594H29.9656Z" fill="#E2F2FF"/>
<path d="M191.89 199H26.3242V47.5154C26.3256 46.2795 26.8172 45.0945 27.6912 44.2205C28.5652 43.3465 29.7502 42.8549 30.9861 42.8535H187.226C188.462 42.8549 189.647 43.3465 190.521 44.2205C191.395 45.0945 191.886 46.2795 191.888 47.5154L191.89 199ZM29.5228 195.801H188.692V47.5154C188.691 47.1276 188.537 46.7558 188.262 46.4815C187.988 46.2072 187.616 46.0528 187.228 46.0521H30.9861C30.5983 46.0528 30.2265 46.2072 29.9522 46.4815C29.6779 46.7558 29.5235 47.1276 29.5228 47.5154V195.801Z" fill="#426572"/>
<path d="M37.2468 54.4722C38.3745 54.4722 39.2886 53.5581 39.2886 52.4304C39.2886 51.3028 38.3745 50.3887 37.2468 50.3887C36.1192 50.3887 35.2051 51.3028 35.2051 52.4304C35.2051 53.5581 36.1192 54.4722 37.2468 54.4722Z" fill="#CADCE8"/>
<path d="M43.3738 54.4722C44.5014 54.4722 45.4155 53.5581 45.4155 52.4304C45.4155 51.3028 44.5014 50.3887 43.3738 50.3887C42.2462 50.3887 41.332 51.3028 41.332 52.4304C41.332 53.5581 42.2462 54.4722 43.3738 54.4722Z" fill="#CADCE8"/>
<path d="M49.5007 54.4722C50.6284 54.4722 51.5425 53.5581 51.5425 52.4304C51.5425 51.3028 50.6284 50.3887 49.5007 50.3887C48.3731 50.3887 47.459 51.3028 47.459 52.4304C47.459 53.5581 48.3731 54.4722 49.5007 54.4722Z" fill="#CADCE8"/>
<path d="M182.307 50.3862H58.1251C57.1683 50.3862 56.3926 51.1619 56.3926 52.1188V52.7372C56.3926 53.6941 57.1683 54.4697 58.1251 54.4697H182.307C183.264 54.4697 184.04 53.6941 184.04 52.7372V52.1188C184.04 51.1619 183.264 50.3862 182.307 50.3862Z" fill="#CADCE8"/>
<path d="M297.769 18.4113V197.401H135.406V18.4113C135.409 17.5999 135.733 16.8225 136.306 16.2488C136.88 15.675 137.657 15.3514 138.469 15.3486H294.709C294.893 15.3487 295.077 15.3656 295.258 15.3993C295.961 15.5303 296.598 15.9029 297.056 16.4528C297.514 17.0027 297.766 17.6954 297.769 18.4113Z" fill="white"/>
<path d="M137.956 30.1554H298.282V19.3868L295.216 15.3486H154.807H141.021L135.914 19.3868V30.1554H137.956Z" fill="#E2F2FF"/>
<path d="M299.865 199H134.312V18.4114C134.314 17.1754 134.806 15.9905 135.68 15.1165C136.553 14.2425 137.738 13.7509 138.974 13.7495H295.214C296.448 13.7537 297.63 14.2466 298.502 15.1203C299.374 15.9939 299.864 17.1773 299.865 18.4114V199ZM137.498 195.802H296.667V18.4114C296.666 18.0235 296.512 17.6517 296.237 17.3775C295.963 17.1032 295.591 16.9488 295.203 16.9481H138.974C138.587 16.9488 138.215 17.1032 137.94 17.3775C137.666 17.6517 137.512 18.0235 137.511 18.4114L137.498 195.802Z" fill="#426572"/>
<path d="M145.237 25.3682C146.365 25.3682 147.279 24.4541 147.279 23.3264C147.279 22.1988 146.365 21.2847 145.237 21.2847C144.109 21.2847 143.195 22.1988 143.195 23.3264C143.195 24.4541 144.109 25.3682 145.237 25.3682Z" fill="#CADCE8"/>
<path d="M151.362 25.3682C152.49 25.3682 153.404 24.4541 153.404 23.3264C153.404 22.1988 152.49 21.2847 151.362 21.2847C150.234 21.2847 149.32 22.1988 149.32 23.3264C149.32 24.4541 150.234 25.3682 151.362 25.3682Z" fill="#CADCE8"/>
<path d="M157.489 25.3682C158.617 25.3682 159.531 24.4541 159.531 23.3264C159.531 22.1988 158.617 21.2847 157.489 21.2847C156.361 21.2847 155.447 22.1988 155.447 23.3264C155.447 24.4541 156.361 25.3682 157.489 25.3682Z" fill="#CADCE8"/>
<path d="M290.297 21.2847H166.115C165.159 21.2847 164.383 22.0604 164.383 23.0172V23.6356C164.383 24.5925 165.159 25.3682 166.115 25.3682H290.297C291.254 25.3682 292.03 24.5925 292.03 23.6356V23.0172C292.03 22.0604 291.254 21.2847 290.297 21.2847Z" fill="#CADCE8"/>
<path d="M155.473 49.3311H188.858V87.3701H155.473V49.3311Z" fill="#E8837E"/>
<path d="M192.008 49.3311H271.167V87.3701H192.008V49.3311Z" fill="#E8837E"/>
<path d="M233.793 91.5815H271.168V129.621H233.793V91.5815Z" fill="#DDE4ED"/>
<path d="M155.895 91.5815H230.643V129.621H155.895V91.5815Z" fill="#DDE4ED"/>
<path d="M155.895 133.832H271.379V171.871H155.895V133.832Z" fill="#DDE4ED"/>
<path d="M43.6562 142.201H69.6473V144.867H43.6562V142.201Z" fill="#DDE4ED"/>
<path d="M43.6562 149.351H69.6473V152.016H43.6562V149.351Z" fill="#DDE4ED"/>
<path d="M43.6562 156.497H69.6473V159.162H43.6562V156.497Z" fill="#DDE4ED"/>
<path d="M43.6562 163.646H69.6473V166.311H43.6562V163.646Z" fill="#DDE4ED"/>
<path d="M43.6562 170.794H69.6473V173.46H43.6562V170.794Z" fill="#DDE4ED"/>
<path d="M43.6562 177.943H69.6473V180.608H43.6562V177.943Z" fill="#DDE4ED"/>
<path d="M57.1254 123.064L62.2645 114.251L70.2262 120.931V127.032H48.1348L53.5297 119.582L57.1254 123.064Z" fill="#DDE4ED"/>
<path d="M80.3934 118.903H72.6875V109.526L74.2281 108.049L80.3934 114.343V118.903Z" fill="#DDE4ED"/>
<path d="M51.7798 118.135C52.6125 118.134 53.4262 117.887 54.1182 117.424C54.8102 116.961 55.3492 116.303 55.6671 115.533C55.985 114.763 56.0675 113.917 55.9042 113.1C55.7408 112.284 55.339 111.534 54.7494 110.946C54.1599 110.358 53.4092 109.958 52.5924 109.797C51.7755 109.636 50.9291 109.72 50.1604 110.04C49.3916 110.36 48.735 110.901 48.2736 111.594C47.8122 112.287 47.5668 113.101 47.5684 113.934C47.574 115.048 48.0198 116.115 48.8087 116.902C49.5976 117.689 50.6656 118.132 51.7798 118.135Z" fill="#DDE4ED"/>
<path opacity="0.2" d="M238.542 85.1628V195.359H76.1741V85.1628C76.1641 84.3388 76.4806 83.5444 77.0544 82.9531C77.6283 82.3618 78.4128 82.0216 79.2367 82.0068H235.476C236.301 82.0209 237.086 82.3608 237.66 82.9522C238.235 83.5436 238.552 84.3384 238.542 85.1628Z" fill="#606060"/>
<path d="M232.668 90.4059V197.401H70.3008V90.4059C70.3036 89.5945 70.6272 88.8171 71.2009 88.2434C71.7747 87.6697 72.552 87.3461 73.3634 87.3433H229.603C229.787 87.3433 229.971 87.3603 230.152 87.3939C230.857 87.5238 231.494 87.8959 231.954 88.4459C232.413 88.9959 232.666 89.6892 232.668 90.4059Z" fill="white"/>
<path d="M72.8562 102.147H233.179V91.378L230.117 87.3398H89.7047H72.0912L70.8145 91.378V102.147H72.8562Z" fill="#E2F2FF"/>
<path d="M80.1355 96.8501C81.2631 96.8501 82.1773 95.936 82.1773 94.8084C82.1773 93.6807 81.2631 92.7666 80.1355 92.7666C79.0079 92.7666 78.0938 93.6807 78.0938 94.8084C78.0938 95.936 79.0079 96.8501 80.1355 96.8501Z" fill="#CADCE8"/>
<path d="M86.2625 96.8501C87.3901 96.8501 88.3042 95.936 88.3042 94.8084C88.3042 93.6807 87.3901 92.7666 86.2625 92.7666C85.1348 92.7666 84.2207 93.6807 84.2207 94.8084C84.2207 95.936 85.1348 96.8501 86.2625 96.8501Z" fill="#CADCE8"/>
<path d="M92.3914 96.8501C93.519 96.8501 94.4331 95.936 94.4331 94.8084C94.4331 93.6807 93.519 92.7666 92.3914 92.7666C91.2637 92.7666 90.3496 93.6807 90.3496 94.8084C90.3496 95.936 91.2637 96.8501 92.3914 96.8501Z" fill="#CADCE8"/>
<path d="M225.2 92.7666H101.018C100.061 92.7666 99.2852 93.5423 99.2852 94.4992V95.1176C99.2852 96.0744 100.061 96.8501 101.018 96.8501H225.2C226.157 96.8501 226.932 96.0744 226.932 95.1176V94.4992C226.932 93.5423 226.157 92.7666 225.2 92.7666Z" fill="#CADCE8"/>
<path d="M116.795 170.341C120.732 170.341 123.923 167.15 123.923 163.213C123.923 159.277 120.732 156.086 116.795 156.086C112.859 156.086 109.668 159.277 109.668 163.213C109.668 167.15 112.859 170.341 116.795 170.341Z" fill="#DDE4ED"/>
<path d="M151.807 170.341C155.744 170.341 158.935 167.15 158.935 163.213C158.935 159.277 155.744 156.086 151.807 156.086C147.871 156.086 144.68 159.277 144.68 163.213C144.68 167.15 147.871 170.341 151.807 170.341Z" fill="#DDE4ED"/>
<path d="M186.819 170.341C190.755 170.341 193.946 167.15 193.946 163.213C193.946 159.277 190.755 156.086 186.819 156.086C182.882 156.086 179.691 159.277 179.691 163.213C179.691 167.15 182.882 170.341 186.819 170.341Z" fill="#DDE4ED"/>
<path d="M208.987 115.707H94.6302C92.8637 115.707 91.4316 117.139 91.4316 118.905V145.187C91.4316 146.953 92.8637 148.385 94.6302 148.385H208.987C210.754 148.385 212.186 146.953 212.186 145.187V118.905C212.186 117.139 210.754 115.707 208.987 115.707Z" fill="#A8EF9E"/>
<path d="M92.416 178.953H150.113V182.152H92.416V178.953Z" fill="#E8EDF7"/>
<path d="M92.1602 185.334H185.087V188.533H92.1602V185.334Z" fill="#E8EDF7"/>
<path d="M158.281 178.953H213.425V182.152H158.281V178.953Z" fill="#E8EDF7"/>
<path opacity="0.3" d="M74.4692 197.145H72.0703V103.274H232.572V105.673H74.4692V197.145Z" fill="#C1CEDE"/>
<path d="M70.9941 100.548H232.695V103.746H70.9941V100.548Z" fill="#426572"/>
<path d="M234.778 199H69.2148V90.4056C69.2163 89.1696 69.7079 87.9846 70.5818 87.1107C71.4558 86.2367 72.6408 85.7451 73.8768 85.7437H230.116C231.352 85.7451 232.537 86.2367 233.411 87.1107C234.285 87.9846 234.777 89.1696 234.778 90.4056V199ZM72.4107 195.801H231.58V90.4056C231.579 90.0177 231.425 89.6459 231.15 89.3716C230.876 89.0973 230.504 88.9429 230.116 88.9422H73.8768C73.4889 88.9429 73.1171 89.0973 72.8428 89.3716C72.5685 89.6459 72.4141 90.0177 72.4134 90.4056L72.4107 195.801Z" fill="#426572"/>
<path d="M246.1 177.953H275.713V180.086H246.1V177.953Z" fill="#DDE4ED"/>
<defs>
<linearGradient id="paint0_linear_419_1192" x1="0.351538" y1="99.8575" x2="334.411" y2="99.8575" gradientUnits="userSpaceOnUse">
<stop stop-color="#C5E9FA"/>
<stop offset="1" stop-color="#C4F4EA"/>
</linearGradient>
</defs>
</svg>
