<svg width="281" height="204" viewBox="0 0 281 204" fill="none" xmlns="http://www.w3.org/2000/svg">
<path d="M74.6289 182.975L81.2666 195.872L84.0314 194.45L77.157 181.093" fill="#F96440"/>
<path opacity="0.2" d="M77.8816 183.633L80.909 189.52L77.9365 190.533L75.3535 185.517L77.8816 183.633Z" fill="#463E3B"/>
<path d="M84.7268 194.674L80.5826 196.807L73.5898 183.22L74.9722 182.507L81.2521 194.715L82.6345 194.002L76.1151 181.338L77.4975 180.625L84.7268 194.674Z" fill="#314E5D"/>
<path d="M68.6229 191.309L132.614 158.366C133.868 157.72 134.983 156.834 135.895 155.757C136.806 154.681 137.497 153.435 137.928 152.092C138.358 150.748 138.52 149.333 138.403 147.928C138.287 146.522 137.894 145.152 137.249 143.898L80.9432 34.5082C80.2976 33.2539 79.4113 32.139 78.3349 31.2272C77.2584 30.3155 76.0129 29.6247 74.6695 29.1943C73.326 28.7639 71.9109 28.6023 70.5051 28.7188C69.0992 28.8353 67.73 29.2276 66.4758 29.8733L2.48505 62.8081C1.59035 63.2689 0.915326 64.0663 0.608458 65.0247C0.30159 65.9832 0.388009 67.0244 0.848707 67.9191L63.5119 189.673C63.9727 190.567 64.7701 191.242 65.7285 191.549C66.687 191.856 67.7282 191.77 68.6229 191.309Z" fill="#E8F0F9"/>
<path d="M66.7157 30.3357L2.725 63.2676C2.16416 63.5558 1.68409 63.9793 1.32831 64.4999C0.97252 65.0205 0.752265 65.6216 0.6875 66.2488C0.955926 65.9889 1.26129 65.7701 1.5937 65.5995L65.5844 32.6647C66.8387 32.019 68.2078 31.6267 69.6137 31.5102C71.0196 31.3937 72.4347 31.5553 73.7781 31.9856C75.1215 32.416 76.367 33.1068 77.4435 34.0186C78.5199 34.9304 79.4062 36.0453 80.0518 37.2996L136.357 146.701C137.021 147.989 137.417 149.398 137.52 150.843C137.623 152.288 137.432 153.739 136.957 155.108C137.982 153.523 138.571 151.696 138.664 149.811C138.757 147.926 138.352 146.05 137.488 144.372L81.1831 34.9706C80.5376 33.7163 79.6512 32.6014 78.5748 31.6896C77.4983 30.7779 76.2528 30.0871 74.9094 29.6567C73.566 29.2263 72.1509 29.0647 70.745 29.1812C69.3391 29.2977 67.97 29.6901 66.7157 30.3357Z" fill="white"/>
<path d="M5.33744 61.9229L3.64626 62.7886C3.20349 63.0178 2.81022 63.332 2.48892 63.7132C2.16761 64.0944 1.92457 64.5352 1.77368 65.0104C1.62279 65.4856 1.56701 65.9858 1.60953 66.4826C1.65204 66.9793 1.79202 67.4628 2.02146 67.9055L64.6702 189.659C64.8981 190.102 65.2111 190.496 65.5914 190.819C65.9716 191.141 66.4116 191.385 66.8862 191.537C67.3608 191.689 67.8608 191.747 68.3575 191.706C68.8542 191.665 69.338 191.526 69.7813 191.298L71.4724 190.432L5.33744 61.9229Z" fill="#BCD9EA"/>
<path d="M133.332 159.18L69.3272 192.111C68.2485 192.665 66.9942 192.768 65.8395 192.398C64.6849 192.028 63.7242 191.215 63.1685 190.137L0.505321 68.3868C-0.0484854 67.3081 -0.151665 66.0538 0.218432 64.8991C0.588529 63.7445 1.40166 62.7839 2.47933 62.2281L66.4701 29.2934C69.1884 27.902 72.3473 27.6443 75.2551 28.5768C78.163 29.5093 80.5829 31.556 81.9851 34.2688L138.29 143.67C139.681 146.386 139.941 149.542 139.011 152.448C138.082 155.354 136.041 157.774 133.332 159.18ZM3.19216 63.6105C2.48083 63.9776 1.94425 64.6121 1.70022 65.3744C1.4562 66.1368 1.52466 66.9649 1.89059 67.6768L64.5509 189.427C64.918 190.139 65.5524 190.675 66.3148 190.919C67.0772 191.163 67.9053 191.095 68.6172 190.729L132.608 157.789C134.955 156.577 136.726 154.483 137.532 151.968C138.339 149.452 138.114 146.719 136.908 144.369L80.6027 34.9759C79.3909 32.6284 77.2975 30.8575 74.7818 30.0513C72.2661 29.2452 69.5333 29.4698 67.1829 30.6758L3.19216 63.6105Z" fill="#314E5D"/>
<path opacity="0.2" d="M92.6394 83.6195L84.9108 75.9543L72.4751 63.6168L72.2009 63.3455C71.6925 62.8414 71.0048 62.5598 70.2889 62.5625C69.5729 62.5652 68.8874 62.852 68.3828 63.3599L68.1115 63.6341L29.7886 102.266L29.5174 102.554C29.0133 103.063 28.7317 103.75 28.7344 104.466C28.7371 105.182 29.0239 105.868 29.5318 106.372L39.751 116.511L49.6961 126.361L49.9847 126.632C50.4931 127.136 51.1808 127.418 51.8967 127.415C52.6127 127.412 53.2982 127.125 53.8028 126.618L92.6683 87.4232C93.166 86.9135 93.4423 86.2278 93.4369 85.5154C93.4314 84.803 93.1448 84.1215 92.6394 83.6195Z" fill="#463E3B"/>
<path d="M72.4066 60.9614L28.6411 97.7372C27.9138 98.3483 27.8196 99.4333 28.4308 100.161L48.2111 123.701C48.8222 124.428 49.9072 124.522 50.6345 123.911L94.4001 87.1351C95.1273 86.5239 95.2215 85.4389 94.6104 84.7117L74.83 61.1718C74.2189 60.4445 73.1339 60.3503 72.4066 60.9614Z" fill="white"/>
<path opacity="0.2" d="M62.2877 114.115L51.6875 123.027C51.3768 123.289 51.0175 123.487 50.6301 123.61C50.2427 123.733 49.8349 123.778 49.4301 123.743C49.0252 123.708 48.6313 123.593 48.2709 123.405C47.9104 123.218 47.5906 122.961 47.3296 122.649L29.3067 101.201C29.2381 101.121 29.1754 101.036 29.1191 100.947C32.7555 101.709 36.7035 101.645 40.4293 101.406C42.4119 101.276 44.4119 101.117 46.3802 101.354C51.5201 101.977 56.0164 105.29 59.1939 109.371C60.3502 110.867 61.3847 112.454 62.2877 114.115Z" fill="#DED6D3"/>
<path d="M51.2403 124.312C50.5387 124.669 49.7365 124.779 48.9649 124.621C48.1933 124.464 47.4979 124.05 46.9921 123.446L28.4699 101.406C28.1754 101.056 27.9528 100.652 27.8147 100.215C27.6767 99.7795 27.6259 99.3206 27.6653 98.8649C27.7047 98.4093 27.8335 97.9659 28.0444 97.56C28.2552 97.1542 28.544 96.7939 28.8942 96.4998L71.1593 60.9878C71.5082 60.6912 71.9125 60.4667 72.3488 60.3273C72.785 60.1879 73.2446 60.1365 73.7009 60.176C74.1572 60.2154 74.6011 60.345 75.007 60.5572C75.4129 60.7693 75.7726 61.0599 76.0654 61.4121L94.5876 83.4494C94.8821 83.7993 95.1048 84.2038 95.2428 84.6398C95.3809 85.0758 95.4317 85.5347 95.3923 85.9904C95.3529 86.446 95.2241 86.8894 95.0132 87.2953C94.8024 87.7011 94.5136 88.0614 94.1634 88.3555L51.8925 123.87C51.6923 124.042 51.4736 124.19 51.2403 124.312ZM72.5157 61.9489C72.3878 62.015 72.2677 62.0954 72.1578 62.1884L29.8956 97.6974C29.5056 98.026 29.262 98.496 29.2182 99.004C29.1743 99.5121 29.3339 100.017 29.6618 100.407L48.1956 122.445C48.5242 122.835 48.9941 123.078 49.5022 123.122C50.0103 123.166 50.515 123.006 50.9055 122.678L93.1562 87.1607C93.5462 86.8321 93.7898 86.3622 93.8336 85.8541C93.8775 85.3461 93.7179 84.8413 93.39 84.4508L74.8678 62.4135C74.5872 62.08 74.2018 61.8516 73.7745 61.7656C73.3472 61.6796 72.9034 61.7412 72.5157 61.9402V61.9489Z" fill="#314E5D"/>
<path opacity="0.2" d="M58.2518 36.866C57.8285 36.0432 57.0957 35.4223 56.2146 35.1398C55.3335 34.8573 54.3763 34.9363 53.5534 35.3595L51.0051 36.6726C50.2837 37.0471 49.7158 37.6619 49.3996 38.4107C49.0834 39.1596 49.0388 39.9953 49.2735 40.7736C49.2998 41.2606 49.4286 41.7366 49.6516 42.1704L114.482 168.155C114.692 168.563 114.98 168.926 115.331 169.223C115.682 169.52 116.087 169.745 116.525 169.885C116.962 170.024 117.423 170.076 117.881 170.037C118.339 169.999 118.784 169.87 119.192 169.658L121.74 168.345C122.551 167.715 123.127 166.83 123.374 165.832C123.621 164.835 123.525 163.784 123.103 162.847L58.2518 36.866Z" fill="#463E3B"/>
<path d="M55.9104 33.5752L53.7035 34.7109C51.8965 35.6407 51.1854 37.8594 52.1153 39.6664L116.773 165.315C117.703 167.122 119.922 167.833 121.729 166.903L123.935 165.767C125.742 164.838 126.453 162.619 125.524 160.812L60.8658 35.1634C59.936 33.3564 57.7173 32.6454 55.9104 33.5752Z" fill="#938D35"/>
<path d="M56.5483 34.1279L124.216 165.607C124.182 165.629 124.148 165.648 124.112 165.665L122.836 166.323L55.1602 34.8263L56.2251 34.278C56.329 34.2241 56.4367 34.1741 56.5483 34.1279Z" fill="#DAE23B"/>
<path d="M51.7852 35.6191L52.2445 35.3828L120.272 167.58L119.813 167.817L51.7852 35.6191Z" fill="#463E3B"/>
<path d="M53.4004 35.3687L53.8597 35.1323L121.887 167.33L121.428 167.566L53.4004 35.3687Z" fill="#463E3B"/>
<path d="M54.7812 34.6567L55.2406 34.4204L123.268 166.618L122.809 166.854L54.7812 34.6567Z" fill="#463E3B"/>
<path d="M56.1621 33.9468L56.6215 33.7104L124.649 165.908L124.19 166.144L56.1621 33.9468Z" fill="#463E3B"/>
<path d="M57.5469 33.2373L58.0062 33.0009L126.034 165.198L125.575 165.435L57.5469 33.2373Z" fill="#463E3B"/>
<path d="M124.386 166.695L121.837 168.008C120.831 168.524 119.662 168.62 118.585 168.275C117.508 167.93 116.612 167.171 116.094 166.166L51.2406 40.1821C50.7243 39.1762 50.6281 38.0064 50.9733 36.9297C51.3185 35.8529 52.0769 34.9572 53.0819 34.439L55.6302 33.1259C56.6361 32.6095 57.8059 32.5134 58.8826 32.8586C59.9594 33.2038 60.8551 33.9621 61.3733 34.9671L126.212 160.963C126.726 161.966 126.823 163.132 126.48 164.205C126.138 165.279 125.385 166.174 124.386 166.695ZM53.7918 35.8214C53.1549 36.1505 52.6742 36.7183 52.4546 37.4007C52.2351 38.0832 52.2946 38.8248 52.6201 39.4635L117.459 165.457C117.789 166.095 118.358 166.577 119.043 166.796C119.727 167.015 120.471 166.954 121.11 166.625L123.658 165.312C124.297 164.983 124.779 164.413 124.998 163.729C125.217 163.044 125.156 162.301 124.827 161.661L59.9909 35.6771C59.6613 35.0384 59.0918 34.5566 58.4073 34.3375C57.7228 34.1183 56.9794 34.1798 56.3402 34.5083L53.7918 35.8214Z" fill="#314E5D"/>
<path d="M231.889 0.844238H100.707C96.6694 0.844238 93.3965 4.11712 93.3965 8.15441V192.825C93.3965 196.862 96.6694 200.135 100.707 200.135H231.889C235.926 200.135 239.199 196.862 239.199 192.825V8.15441C239.199 4.11712 235.926 0.844238 231.889 0.844238Z" fill="#1DCDFF"/>
<path d="M239.199 125.579V188.204C239.199 194.796 236.073 200.138 232.218 200.138H100.378C96.522 200.138 93.3965 194.796 93.3965 188.204V151.982C102.285 161.962 112.404 168.695 122.781 172.877C135.312 177.933 148.25 179.408 161.122 179.624C176.51 179.887 192.163 178.305 206.651 169.448C219.935 161.324 232.247 146.395 239.199 125.579Z" fill="#1AB5E1"/>
<path d="M146.113 1.34598C132.378 5.28534 113.299 1.48451 101.444 15.9606C95.8159 22.8263 94.4335 36.1364 93.5273 47.1464L93.5447 16.33C93.5447 12.382 93.6226 8.07319 95.1175 5.07466C96.9703 1.3431 100.203 1.05739 103.054 1.06027C117.062 1.08047 132.378 -1.5169 146.113 1.34598Z" fill="#4ED9FF"/>
<path d="M231.75 1.08008H100.568C96.5307 1.08008 93.2578 4.35296 93.2578 8.39025V193.061C93.2578 197.098 96.5307 200.371 100.568 200.371H231.75C235.787 200.371 239.06 197.098 239.06 193.061V8.39025C239.06 4.35296 235.787 1.08008 231.75 1.08008Z" stroke="#314E5D" stroke-width="6.43671" stroke-miterlimit="10"/>
<path d="M220.981 13.9785H111.759C109.231 13.9785 107.182 16.0278 107.182 18.5557V180.999C107.182 183.526 109.231 185.576 111.759 185.576H220.981C223.509 185.576 225.559 183.526 225.559 180.999V18.5557C225.559 16.0278 223.509 13.9785 220.981 13.9785Z" fill="white"/>
<path d="M225.415 18.8466V52.1623H107.041V18.8466C107.041 16.2896 108.735 14.2291 110.827 14.2291H221.643C223.721 14.2175 225.415 16.2896 225.415 18.8466Z" fill="#EA4583"/>
<path d="M220.841 13.6919H111.618C109.09 13.6919 107.041 15.7412 107.041 18.2691V181.953C107.041 184.481 109.09 186.53 111.618 186.53H220.841C223.369 186.53 225.418 184.481 225.418 181.953V18.2691C225.418 15.7412 223.369 13.6919 220.841 13.6919Z" stroke="#314E5D" stroke-width="6.43671" stroke-miterlimit="10"/>
<path d="M127.469 36.4131H204.796V43.097H127.469V36.4131Z" fill="white"/>
<path d="M162.891 86.2109H125.058V84.6208H162.891V86.2109Z" fill="#AFE6FF"/>
<path d="M207.398 89.7085H125.062V88.1183H207.398V89.7085Z" fill="#AFE6FF"/>
<path d="M162.891 93.2065H125.058V91.6164H162.891V93.2065Z" fill="#AFE6FF"/>
<path d="M207.398 96.7017H125.062V95.1115H207.398V96.7017Z" fill="#AFE6FF"/>
<path d="M162.891 100.202H125.058V98.612H162.891V100.202Z" fill="#AFE6FF"/>
<path d="M207.398 103.697H125.062V102.107H207.398V103.697Z" fill="#AFE6FF"/>
<path d="M219.689 24.6792H191.289V21.3372H219.689V24.6792Z" fill="#EEA248"/>
<path d="M187.371 24.6792H158.97V21.3372H187.371V24.6792Z" fill="#EEA248"/>
<path d="M115.99 26.2291C117.769 26.2291 119.211 24.7871 119.211 23.0083C119.211 21.2296 117.769 19.7876 115.99 19.7876C114.212 19.7876 112.77 21.2296 112.77 23.0083C112.77 24.7871 114.212 26.2291 115.99 26.2291Z" fill="#EEA248"/>
<path d="M136.393 75.579C140.347 75.579 143.553 72.3733 143.553 68.4189C143.553 64.4645 140.347 61.2588 136.393 61.2588C132.438 61.2588 129.232 64.4645 129.232 68.4189C129.232 72.3733 132.438 75.579 136.393 75.579Z" fill="#EA4583"/>
<path d="M198.922 61.9746H193.917C191.542 61.9746 189.617 63.8998 189.617 66.2747V71.279C189.617 73.6539 191.542 75.5791 193.917 75.5791H198.922C201.296 75.5791 203.222 73.6539 203.222 71.279V66.2747C203.222 63.8998 201.296 61.9746 198.922 61.9746Z" fill="#958FEE"/>
<path d="M165.399 62.9959C165.499 62.8155 165.645 62.6651 165.823 62.5604C166 62.4556 166.203 62.4004 166.409 62.4004C166.615 62.4004 166.818 62.4556 166.995 62.5604C167.173 62.6651 167.319 62.8155 167.419 62.9959L170.547 68.4129L173.676 73.8299C173.777 74.0059 173.831 74.2057 173.83 74.4089C173.83 74.6122 173.776 74.8118 173.674 74.9875C173.572 75.1632 173.425 75.3088 173.248 75.4096C173.072 75.5104 172.872 75.5628 172.669 75.5614H160.152C159.949 75.5628 159.749 75.5104 159.572 75.4096C159.396 75.3088 159.249 75.1632 159.147 74.9875C159.045 74.8118 158.991 74.6122 158.99 74.4089C158.99 74.2057 159.043 74.0059 159.145 73.8299L162.273 68.4129L165.399 62.9959Z" fill="#EEA248"/>
<path d="M275.173 51.2739L255.183 44.0432C251.964 42.8792 248.412 44.5444 247.248 47.7627L199.113 180.84C197.949 184.058 199.615 187.611 202.833 188.775L222.824 196.005C226.042 197.169 229.594 195.504 230.758 192.286L278.893 59.2087C280.057 55.9905 278.392 52.438 275.173 51.2739Z" fill="#E8F0F9"/>
<path d="M276.511 51.0079L271.833 49.3398C273.022 49.7646 273.995 50.6444 274.536 51.7857C275.077 52.927 275.143 54.2365 274.719 55.4264L226.2 191.483C225.775 192.672 224.895 193.645 223.754 194.186C222.613 194.727 221.303 194.793 220.113 194.369L224.791 196.037C225.981 196.461 227.291 196.395 228.432 195.854C229.573 195.313 230.453 194.34 230.878 193.151L279.397 57.1031C279.608 56.5134 279.701 55.8879 279.67 55.2623C279.64 54.6367 279.486 54.0232 279.218 53.4571C278.95 52.891 278.573 52.3833 278.108 51.963C277.644 51.5428 277.101 51.2182 276.511 51.0079Z" fill="#BCD9EA"/>
<path opacity="0.2" d="M276.512 51.0076L253.779 42.9009C252.589 42.477 251.28 42.5428 250.138 43.084C248.997 43.6251 248.117 44.5974 247.693 45.7869L245.84 50.9817C246.265 49.7921 247.144 48.8199 248.286 48.2787C249.427 47.7376 250.737 47.6717 251.926 48.0957L274.659 56.2024C275.849 56.6272 276.821 57.5069 277.362 58.6482C277.903 59.7896 277.969 61.0991 277.545 62.2889L279.398 57.0942C279.822 55.9043 279.756 54.5948 279.215 53.4535C278.674 52.3122 277.702 51.4324 276.512 51.0076Z" fill="#463E3B"/>
<path d="M270.842 63.0547L271.398 61.4944L276.596 63.3481L276.039 64.9084L270.842 63.0547Z" fill="#314E5D"/>
<path d="M269.357 67.2144L269.914 65.6541L275.111 67.5078L274.555 69.0681L269.357 67.2144Z" fill="#314E5D"/>
<path d="M267.871 71.3721L268.428 69.8118L273.625 71.6655L273.068 73.2258L267.871 71.3721Z" fill="#314E5D"/>
<path d="M262.139 74.4565L262.702 72.8994L273.076 76.6516L272.512 78.2088L262.139 74.4565Z" fill="#314E5D"/>
<path d="M265.77 78.9082L266.326 77.3479L271.523 79.2017L270.967 80.7619L265.77 78.9082Z" fill="#314E5D"/>
<path d="M264.287 83.0674L264.844 81.5071L270.041 83.3609L269.484 84.9211L264.287 83.0674Z" fill="#314E5D"/>
<path d="M262.807 87.2266L263.363 85.6663L268.56 87.52L268.004 89.0803L262.807 87.2266Z" fill="#314E5D"/>
<path d="M257.02 90.3647L257.583 88.8076L267.957 92.5598L267.393 94.117L257.02 90.3647Z" fill="#314E5D"/>
<path d="M260.701 94.7617L261.258 93.2014L266.455 95.0552L265.898 96.6155L260.701 94.7617Z" fill="#314E5D"/>
<path d="M259.219 98.9214L259.775 97.3611L264.973 99.2149L264.416 100.775L259.219 98.9214Z" fill="#314E5D"/>
<path d="M257.734 103.081L258.291 101.52L263.488 103.374L262.932 104.934L257.734 103.081Z" fill="#314E5D"/>
<path d="M251.055 105.383L251.611 103.823L262.006 107.531L261.449 109.091L251.055 105.383Z" fill="#314E5D"/>
<path d="M254.596 110.246L255.152 108.686L260.349 110.54L259.793 112.1L254.596 110.246Z" fill="#314E5D"/>
<path d="M253.111 114.405L253.668 112.845L258.865 114.699L258.309 116.259L253.111 114.405Z" fill="#314E5D"/>
<path d="M251.629 118.562L252.185 117.002L257.383 118.855L256.826 120.416L251.629 118.562Z" fill="#314E5D"/>
<path d="M245.742 121.812L246.305 120.255L256.679 124.008L256.116 125.565L245.742 121.812Z" fill="#314E5D"/>
<path d="M249.004 125.915L249.56 124.355L254.758 126.209L254.201 127.769L249.004 125.915Z" fill="#314E5D"/>
<path d="M247.523 130.072L248.08 128.512L253.277 130.365L252.721 131.926L247.523 130.072Z" fill="#314E5D"/>
<path d="M246.039 134.231L246.596 132.671L251.793 134.524L251.236 136.085L246.039 134.231Z" fill="#314E5D"/>
<path d="M240.104 137.531L240.667 135.974L251.041 139.726L250.477 141.283L240.104 137.531Z" fill="#314E5D"/>
<path d="M243.938 141.769L244.494 140.208L249.691 142.062L249.135 143.622L243.938 141.769Z" fill="#314E5D"/>
<path d="M242.453 145.928L243.01 144.367L248.207 146.221L247.65 147.781L242.453 145.928Z" fill="#314E5D"/>
<path d="M240.971 150.084L241.527 148.524L246.724 150.377L246.168 151.938L240.971 150.084Z" fill="#314E5D"/>
<path d="M234.98 153.44L235.544 151.883L245.918 155.635L245.354 157.192L234.98 153.44Z" fill="#314E5D"/>
<path d="M238.35 157.437L238.906 155.877L244.103 157.73L243.547 159.291L238.35 157.437Z" fill="#314E5D"/>
<path d="M236.863 161.596L237.42 160.036L242.617 161.89L242.061 163.45L236.863 161.596Z" fill="#314E5D"/>
<path d="M235.383 165.756L235.939 164.196L241.137 166.049L240.58 167.61L235.383 165.756Z" fill="#314E5D"/>
<path d="M228.703 168.059L229.26 166.499L239.654 170.206L239.098 171.767L228.703 168.059Z" fill="#314E5D"/>
<path d="M232.764 173.107L233.32 171.547L238.517 173.4L237.961 174.961L232.764 173.107Z" fill="#314E5D"/>
<path d="M231.277 177.266L231.834 175.705L237.031 177.559L236.475 179.119L231.277 177.266Z" fill="#314E5D"/>
<path d="M229.793 181.422L230.349 179.862L235.547 181.716L234.99 183.276L229.793 181.422Z" fill="#314E5D"/>
<path d="M223.113 183.728L223.67 182.167L234.064 185.875L233.508 187.435L223.113 183.728Z" fill="#314E5D"/>
<path d="M206.336 188.875L257.691 44.8926L258.729 45.263L207.374 189.246L206.336 188.875Z" fill="white"/>
<path d="M200.357 186.735L198.799 186.178L249.407 44.2744C249.555 43.8608 249.86 43.5227 250.257 43.3344C250.654 43.1461 251.109 43.123 251.523 43.2701L200.357 186.735Z" fill="white"/>
<path d="M200.359 186.744L251.528 43.2827L253.088 43.8393L201.92 187.3L200.359 186.744Z" fill="white"/>
<path d="M201.918 187.298L253.087 43.8369L254.647 44.3934L203.478 187.854L201.918 187.298Z" fill="white"/>
<path d="M218.437 186.162C218.897 184.871 218.224 183.451 216.933 182.991C215.642 182.53 214.222 183.204 213.762 184.495C213.301 185.786 213.974 187.206 215.265 187.666C216.557 188.127 217.976 187.453 218.437 186.162Z" fill="white"/>
<path d="M214.981 188.438C214.365 188.219 213.827 187.822 213.436 187.297C213.045 186.773 212.818 186.144 212.784 185.491C212.75 184.837 212.91 184.188 213.245 183.626C213.579 183.064 214.073 182.613 214.663 182.331C215.254 182.049 215.914 181.949 216.562 182.042C217.209 182.136 217.815 182.419 218.302 182.856C218.788 183.293 219.135 183.865 219.297 184.499C219.459 185.133 219.429 185.8 219.212 186.417C218.919 187.246 218.308 187.925 217.515 188.304C216.721 188.682 215.81 188.731 214.981 188.438ZM216.649 183.762C216.341 183.652 216.006 183.636 215.688 183.716C215.371 183.796 215.084 183.969 214.864 184.212C214.644 184.455 214.501 184.758 214.454 185.082C214.406 185.406 214.456 185.737 214.596 186.033C214.737 186.329 214.962 186.577 215.243 186.745C215.525 186.913 215.85 186.994 216.177 186.977C216.504 186.96 216.819 186.847 217.082 186.651C217.345 186.456 217.544 186.187 217.654 185.878C217.801 185.464 217.778 185.009 217.589 184.612C217.401 184.216 217.063 183.91 216.649 183.762Z" fill="#314E5D"/>
<path d="M265.007 53.9427C265.468 52.6516 264.794 51.2317 263.503 50.7712C262.212 50.3107 260.792 50.984 260.332 52.2751C259.871 53.5662 260.545 54.9861 261.836 55.4466C263.127 55.9071 264.547 55.2338 265.007 53.9427Z" fill="white"/>
<path d="M261.548 56.2228C260.931 56.0037 260.393 55.6069 260.002 55.0824C259.611 54.5578 259.384 53.9292 259.35 53.2758C259.316 52.6224 259.477 51.9736 259.811 51.4113C260.146 50.849 260.639 50.3984 261.23 50.1165C261.82 49.8346 262.481 49.734 263.128 49.8273C263.776 49.9207 264.381 50.2039 264.868 50.6411C265.355 51.0783 265.701 51.65 265.863 52.2839C266.025 52.9178 265.996 53.5855 265.778 54.2026C265.485 55.0314 264.875 55.7098 264.081 56.0887C263.288 56.4675 262.376 56.5157 261.548 56.2228ZM263.216 51.5446C262.907 51.4346 262.573 51.4185 262.255 51.4985C261.937 51.5785 261.65 51.7509 261.43 51.994C261.211 52.2371 261.068 52.5399 261.02 52.8641C260.973 53.1883 261.022 53.5194 261.163 53.8154C261.303 54.1114 261.528 54.3591 261.81 54.5271C262.091 54.6952 262.416 54.776 262.743 54.7594C263.071 54.7427 263.386 54.6294 263.648 54.4337C263.911 54.2381 264.11 53.9688 264.22 53.6601C264.367 53.2464 264.344 52.7911 264.156 52.3945C263.967 51.9978 263.629 51.6921 263.216 51.5446Z" fill="#314E5D"/>
<path d="M225.432 197.437L201.19 188.779C199.994 188.35 199.017 187.465 198.472 186.317C197.928 185.169 197.861 183.852 198.286 182.655L247.348 45.1004C247.777 43.9045 248.662 42.9273 249.81 42.3831C250.958 41.8388 252.275 41.772 253.472 42.1971L277.714 50.8551C278.91 51.2837 279.887 52.1691 280.432 53.317C280.976 54.465 281.043 55.7819 280.618 56.9791L231.556 194.533C231.127 195.729 230.242 196.706 229.094 197.251C227.946 197.795 226.629 197.862 225.432 197.437ZM252.915 43.77C252.131 43.4913 251.269 43.5351 250.517 43.8917C249.766 44.2482 249.186 44.8885 248.906 45.6718L199.845 183.226C199.569 184.009 199.615 184.87 199.972 185.619C200.329 186.369 200.968 186.947 201.75 187.226L225.992 195.884C226.776 196.163 227.638 196.119 228.39 195.762C229.141 195.406 229.721 194.765 230 193.982L279.062 56.4279C279.341 55.6441 279.297 54.7817 278.94 54.0301C278.584 53.2786 277.944 52.6992 277.16 52.4193L252.915 43.77Z" fill="#314E5D"/>
<path opacity="0.1" d="M247.271 94.6124C247.388 92.4228 247.804 90.2595 248.507 88.1825C249.036 86.4795 249.877 84.8894 250.986 83.4928C252.122 82.0686 253.698 81.0617 255.468 80.6299L255.583 81.1696C253.934 81.5763 252.467 82.5181 251.41 83.8477C250.345 85.1925 249.537 86.7228 249.029 88.3614C248.342 90.3909 247.937 92.5047 247.823 94.6442L247.271 94.6124Z" fill="black"/>
<path opacity="0.1" d="M229.794 100.647C229.408 100.509 229.033 100.341 228.674 100.144L228.939 99.6596C232.616 101.68 237.695 100.263 239.811 96.6467C240.426 95.5962 240.861 94.3119 241.182 92.6063C241.721 89.7203 241.678 87.1403 241.049 84.9238C240.299 82.2832 238.665 80.11 236.567 78.9614L236.832 78.4766C239.06 79.6944 240.792 81.9888 241.58 84.7738C242.232 87.0825 242.281 89.7405 241.724 92.7073C241.392 94.4793 240.936 95.8213 240.281 96.9295C238.235 100.419 233.574 101.98 229.794 100.647Z" fill="black"/>
<path opacity="0.1" d="M230.812 94.3672L230.864 93.8189C233.092 94.0353 235.352 92.3009 235.9 89.9546C236.403 87.7959 235.494 85.2706 233.635 83.666L233.996 83.2476C236.016 84.9791 236.988 87.7295 236.44 90.0816C235.831 92.6847 233.309 94.6096 230.812 94.3672Z" fill="black"/>
<path opacity="0.1" d="M209.868 159.732C209.474 159.592 209.101 159.397 208.76 159.154L209.08 158.704C210.125 159.452 211.461 159.645 212.936 159.267C216.154 158.442 219.591 155.079 221.695 150.701C222.644 148.724 223.452 146.395 224.24 143.371C225.562 138.286 226.165 133.847 226.032 130.205C225.876 125.876 224.644 122.569 222.653 121.149L222.973 120.699C225.106 122.22 226.419 125.677 226.584 130.185C226.716 133.891 226.107 138.372 224.774 143.509C223.978 146.569 223.158 148.929 222.194 150.941C220.021 155.457 216.448 158.944 213.074 159.809C212.022 160.106 210.905 160.079 209.868 159.732Z" fill="black"/>
<path opacity="0.1" d="M212.608 148.843L212.564 148.291C214.934 148.101 217.95 144.407 219.147 140.211C220.261 136.32 219.906 132.167 218.264 129.876L218.712 129.553C220.475 132.012 220.853 136.254 219.678 140.361C218.4 144.828 215.228 148.626 212.608 148.843Z" fill="black"/>
<path opacity="0.1" d="M250.586 133.238C248.358 132.02 246.627 129.726 245.839 126.941C245.187 124.632 245.138 121.974 245.695 119.007C246.027 117.235 246.483 115.893 247.138 114.785C249.397 110.924 254.823 109.417 258.751 111.567L258.485 112.052C254.812 110.032 249.729 111.449 247.614 115.065C246.999 116.115 246.563 117.4 246.243 119.105C245.703 121.991 245.747 124.571 246.376 126.788C247.126 129.428 248.76 131.602 250.858 132.75L250.586 133.238Z" fill="black"/>
<path opacity="0.1" d="M253.422 128.453C251.402 126.722 250.429 123.971 250.977 121.619C251.586 119.022 254.109 117.088 256.605 117.331L256.553 117.879C254.325 117.662 252.065 119.397 251.517 121.743C251.015 123.902 251.924 126.427 253.782 128.032L253.422 128.453Z" fill="black"/>
<path opacity="0.1" d="M230.676 187.656C227.527 185.924 225.08 182.689 223.963 178.753C223.039 175.494 222.97 171.708 223.761 167.497C224.231 164.984 224.878 163.085 225.781 161.517C228.973 156.066 236.632 153.942 242.176 156.975L241.911 157.46C236.621 154.574 229.305 156.594 226.257 161.789C225.374 163.298 224.748 165.139 224.289 167.59C223.515 171.714 223.579 175.416 224.479 178.591C225.556 182.386 227.905 185.517 230.924 187.159L230.676 187.656Z" fill="black"/>
<path opacity="0.1" d="M234.733 180.851C231.902 178.406 230.516 174.539 231.287 171.226C232.153 167.567 235.682 164.877 239.183 165.203L239.131 165.751C235.896 165.437 232.62 167.95 231.827 171.35C231.099 174.467 232.404 178.115 235.094 180.429L234.733 180.851Z" fill="black"/>
<path d="M204.33 184.643L253.46 46.8981L255.02 47.4546L205.89 185.199L204.33 184.643Z" fill="#314E5D"/>
<path opacity="0.1" d="M231.313 143.093C230.675 141.339 229.87 139.157 229.936 136.946C229.979 135.215 230.513 133.555 231.059 131.951C231.347 131.044 231.668 130.109 231.881 129.177C232.44 126.554 232.289 123.829 231.444 121.283C230.6 118.737 229.092 116.462 227.076 114.692L227.434 114.274C229.525 116.11 231.089 118.47 231.965 121.111C232.841 123.753 232.997 126.579 232.418 129.301C232.199 130.259 231.887 131.209 231.581 132.127C231.062 133.694 230.528 135.301 230.487 136.963C230.435 139.067 231.209 141.197 231.829 142.909L231.313 143.093Z" fill="black"/>
<path opacity="0.1" d="M252.112 74.9268C251.474 73.1721 250.669 70.9903 250.735 68.7796C250.778 67.0481 251.312 65.3886 251.858 63.784C252.146 62.8778 252.467 61.9428 252.68 61.0106C253.238 58.387 253.088 55.6621 252.243 53.1162C251.398 50.5703 249.891 48.2955 247.875 46.5259L248.233 46.1074C250.324 47.9435 251.888 50.3035 252.764 52.9448C253.64 55.586 253.796 58.413 253.217 61.1347C252.998 62.0928 252.686 63.0423 252.38 63.9601C251.861 65.5271 251.327 67.1346 251.286 68.797C251.234 70.9008 252.008 73.0307 252.628 74.7421L252.112 74.9268Z" fill="black"/>
<path opacity="0.1" d="M267.594 85.7232C266.956 83.9685 266.151 81.7867 266.217 79.576C266.261 77.8444 266.795 76.185 267.34 74.5804C267.629 73.6742 267.949 72.7392 268.163 71.807C268.721 69.1834 268.57 66.4585 267.725 63.9126C266.881 61.3667 265.373 59.0919 263.357 57.3223L263.715 56.9038C265.806 58.7399 267.37 61.0999 268.246 63.7412C269.122 66.3824 269.279 69.2094 268.699 71.9311C268.48 72.8892 268.168 73.8387 267.862 74.7565C267.343 76.3235 266.809 77.931 266.769 79.5933C266.717 81.6972 267.49 83.8271 268.111 85.5385L267.594 85.7232Z" fill="black"/>
<path opacity="0.1" d="M209.998 191.004L209.533 190.715C210.581 189.067 210.468 186.963 210.359 184.943C210.33 184.415 210.301 183.887 210.292 183.367C210.3 181.591 210.428 179.817 210.676 178.057C211.083 174.675 211.47 171.477 210.235 168.499C209.343 166.349 207.637 164.571 206.119 163.076L206.506 162.684C208.067 164.216 209.813 166.043 210.745 168.288C212.038 171.402 211.611 174.819 211.227 178.124C210.978 179.856 210.846 181.603 210.832 183.353C210.832 183.864 210.869 184.383 210.895 184.906C211.022 187.021 211.141 189.206 209.998 191.004Z" fill="black"/>
</svg>
