<svg width="20" height="20" viewBox="0 0 20 20" fill="none" xmlns="http://www.w3.org/2000/svg">
<path opacity="0.4" d="M13.4915 1.66675H6.51647C3.48314 1.66675 1.6748 3.47508 1.6748 6.50841V13.4834C1.6748 16.5167 3.48314 18.3251 6.51647 18.3251H13.4915C16.5248 18.3251 18.3331 16.5167 18.3331 13.4834V6.50841C18.3331 3.47508 16.5248 1.66675 13.4915 1.66675Z" fill="white"/>
<path d="M11.6001 7.73325L11.6417 10.1916L13.8334 10.1583C13.9917 10.1583 14.1084 10.2999 14.0834 10.4499L13.7917 12.0416C13.7667 12.1583 13.6667 12.2416 13.5501 12.2499L11.6751 12.2833L11.7751 18.3249L9.27507 18.3666L9.17507 12.3249L7.7584 12.3499C7.61673 12.3499 7.5084 12.2416 7.5084 12.0999L7.4834 10.5166C7.4834 10.3749 7.59173 10.2666 7.7334 10.2666L9.15007 10.2416L9.1084 7.53325C9.10244 7.20482 9.16135 6.87844 9.28176 6.57282C9.40217 6.26719 9.5817 5.98833 9.81007 5.75222C10.0384 5.51611 10.3112 5.32738 10.6126 5.19685C10.914 5.06633 11.2383 4.99657 11.5667 4.99159L13.8167 4.95825C13.9584 4.95825 14.0667 5.06659 14.0667 5.20825L14.1001 7.20825C14.1001 7.34992 13.9917 7.45825 13.8501 7.45825L11.8501 7.49159C11.7084 7.48325 11.6001 7.59992 11.6001 7.73325Z" fill="white"/>
</svg>
