<svg width="32" height="32" viewBox="0 0 32 32" fill="none" xmlns="http://www.w3.org/2000/svg">
<path opacity="0.4" d="M21.5864 2.6665H10.4264C5.57302 2.6665 2.67969 5.55984 2.67969 10.4132V21.5732C2.67969 26.4265 5.57302 29.3198 10.4264 29.3198H21.5864C26.4397 29.3198 29.333 26.4265 29.333 21.5732V10.4132C29.333 5.55984 26.4397 2.6665 21.5864 2.6665Z" fill="#C7DC6D"/>
<path d="M18.5603 12.3731L18.627 16.3064L22.1336 16.2531C22.387 16.2531 22.5736 16.4798 22.5336 16.7198L22.067 19.2664C22.027 19.4531 21.867 19.5864 21.6803 19.5998L18.6803 19.6531L18.8403 29.3198L14.8403 29.3864L14.6803 19.7198L12.4136 19.7598C12.187 19.7598 12.0136 19.5864 12.0136 19.3598L11.9736 16.8264C11.9736 16.5998 12.147 16.4264 12.3736 16.4264L14.6403 16.3864L14.5736 12.0531C14.5641 11.5276 14.6584 11.0054 14.851 10.5164C15.0437 10.0274 15.3309 9.58123 15.6963 9.20345C16.0617 8.82567 16.4981 8.52371 16.9804 8.31487C17.4627 8.10603 17.9814 7.99442 18.507 7.98644L22.107 7.93311C22.3336 7.93311 22.507 8.10644 22.507 8.33311L22.5603 11.5331C22.5603 11.7598 22.387 11.9331 22.1603 11.9331L18.9603 11.9864C18.7336 11.9731 18.5603 12.1598 18.5603 12.3731Z" fill="black"/>
</svg>
