<svg width="32" height="32" viewBox="0 0 32 32" fill="none" xmlns="http://www.w3.org/2000/svg">
<path opacity="0.4" d="M23.1719 2.5H8.82812C5.3332 2.5 2.5 5.3332 2.5 8.82812V23.1719C2.5 26.6668 5.3332 29.5 8.82812 29.5H23.1719C26.6668 29.5 29.5 26.6668 29.5 23.1719V8.82812C29.5 5.3332 26.6668 2.5 23.1719 2.5Z" fill="#C7DC6D"/>
<path d="M21.9817 25.459H25.0687C25.1806 25.459 25.2879 25.4145 25.367 25.3354C25.4461 25.2563 25.4906 25.1491 25.4906 25.0372L25.4922 18.5148C25.4922 15.1057 24.7576 12.4854 20.7737 12.4854C19.2593 12.429 17.8311 13.2097 17.0605 14.5133C17.0567 14.5196 17.051 14.5246 17.0442 14.5273C17.0373 14.5301 17.0298 14.5306 17.0227 14.5286C17.0156 14.5267 17.0093 14.5225 17.0048 14.5167C17.0003 14.5108 16.9978 14.5037 16.9977 14.4963V13.222C16.9977 13.1101 16.9533 13.0028 16.8742 12.9236C16.7951 12.8445 16.6877 12.8001 16.5759 12.8001H13.6463C13.5344 12.8001 13.4271 12.8445 13.3479 12.9236C13.2688 13.0028 13.2244 13.1101 13.2244 13.222V25.0366C13.2244 25.1484 13.2688 25.2558 13.3479 25.3349C13.4271 25.414 13.5344 25.4584 13.6463 25.4584H16.7331C16.845 25.4584 16.9523 25.414 17.0314 25.3349C17.1105 25.2558 17.155 25.1484 17.155 25.0366V19.1964C17.155 17.5451 17.4682 15.9459 19.5155 15.9459C21.5336 15.9459 21.5598 17.8355 21.5598 19.3034V25.0371C21.5598 25.149 21.6042 25.2563 21.6833 25.3354C21.7625 25.4145 21.8698 25.459 21.9817 25.459ZM6.50781 8.78878C6.50781 10.0402 7.53793 11.0698 8.78931 11.0698C10.0404 11.0697 11.0699 10.0394 11.0699 8.78836C11.0697 7.53729 10.0401 6.50781 8.78889 6.50781C7.5374 6.50781 6.50781 7.5375 6.50781 8.78878ZM7.24177 25.459H10.3327C10.4446 25.459 10.5519 25.4145 10.6311 25.3354C10.7102 25.2563 10.7546 25.149 10.7546 25.0371V13.222C10.7546 13.1101 10.7102 13.0028 10.6311 12.9236C10.5519 12.8445 10.4446 12.8001 10.3327 12.8001H7.24177C7.12988 12.8001 7.02258 12.8445 6.94346 12.9236C6.86434 13.0028 6.81989 13.1101 6.81989 13.222V25.0371C6.81989 25.149 6.86434 25.2563 6.94346 25.3354C7.02258 25.4145 7.12988 25.459 7.24177 25.459Z" fill="black"/>
</svg>
