<svg width="32" height="32" viewBox="0 0 32 32" fill="none" xmlns="http://www.w3.org/2000/svg">
<path opacity="0.4" d="M9.25308 27.5066C11.2397 28.6666 13.5464 29.3333 15.9997 29.3333C23.5064 29.3333 29.7464 22.7066 29.3064 15.2133C28.8531 7.47995 21.8264 1.51995 13.7331 2.85328C8.15974 3.77328 3.69308 8.29328 2.82641 13.8666C2.31974 17.0933 2.98641 20.1466 4.43974 22.6666L3.25308 27.0799C2.98641 28.0799 3.90641 28.9866 4.89308 28.7066L9.25308 27.5066Z" fill="#C7DC6D"/>
<path d="M22.6663 20.2266C22.6663 20.4666 22.613 20.72 22.493 20.96C22.1715 21.6196 21.6221 22.1405 20.9463 22.4266C20.5463 22.6 20.1063 22.68 19.6397 22.68C18.9597 22.68 18.2263 22.52 17.4663 22.1866C16.693 21.8533 15.933 21.4133 15.173 20.8666C14.3997 20.3066 13.6797 19.68 12.9863 19C12.31 18.3191 11.686 17.5881 11.1197 16.8133C10.573 16.0533 10.133 15.2933 9.81301 14.5333C9.49301 13.7733 9.33301 13.04 9.33301 12.3466C9.33301 11.8933 9.41301 11.4533 9.57301 11.0533C9.73301 10.64 9.98634 10.2666 10.3463 9.93331C10.773 9.50664 11.2397 9.30664 11.733 9.30664C11.9197 9.30664 12.1063 9.34664 12.2797 9.42664C12.453 9.50664 12.613 9.62664 12.733 9.79997L14.2663 12C14.3863 12.1733 14.4797 12.32 14.533 12.4666C14.5997 12.6133 14.6263 12.7466 14.6263 12.88C14.6263 13.04 14.573 13.2 14.4797 13.36C14.3863 13.52 14.2663 13.68 14.1063 13.84L13.5997 14.3733C13.5197 14.4533 13.493 14.5333 13.493 14.64C13.493 14.6933 13.5063 14.7466 13.5197 14.8C13.5463 14.8533 13.5597 14.8933 13.573 14.9333C13.693 15.16 13.9063 15.44 14.1997 15.7866C14.8239 16.5202 15.5061 17.2024 16.2397 17.8266C16.5863 18.12 16.8797 18.32 17.1063 18.44C17.1463 18.4533 17.1863 18.48 17.2263 18.4933C17.2797 18.52 17.333 18.52 17.3997 18.52C17.5197 18.52 17.5997 18.48 17.6797 18.4L18.1863 17.8933C18.3597 17.72 18.5197 17.6 18.6663 17.52C18.8263 17.4266 18.973 17.3733 19.1463 17.3733C19.2797 17.3733 19.413 17.4 19.5597 17.4666C19.7063 17.5333 19.8663 17.6133 20.0263 17.7333L22.2397 19.3066C22.413 19.4266 22.533 19.5733 22.613 19.7333C22.6263 19.88 22.6663 20.04 22.6663 20.2266Z" fill="black"/>
</svg>
