<svg width="20" height="20" viewBox="0 0 20 20" fill="none" xmlns="http://www.w3.org/2000/svg">
<path opacity="0.4" d="M14.4824 1.5625H5.51758C3.33325 1.5625 1.5625 3.33325 1.5625 5.51758V14.4824C1.5625 16.6668 3.33325 18.4375 5.51758 18.4375H14.4824C16.6668 18.4375 18.4375 16.6668 18.4375 14.4824V5.51758C18.4375 3.33325 16.6668 1.5625 14.4824 1.5625Z" fill="white"/>
<path d="M13.7385 15.9119H15.668C15.7379 15.9119 15.8049 15.8841 15.8544 15.8346C15.9038 15.7852 15.9316 15.7182 15.9316 15.6482L15.9326 11.5717C15.9326 9.44108 15.4735 7.80335 12.9836 7.80335C12.0371 7.76815 11.1445 8.25607 10.6628 9.07082C10.6604 9.07478 10.6569 9.07786 10.6526 9.07959C10.6483 9.08131 10.6436 9.0816 10.6392 9.0804C10.6347 9.07919 10.6308 9.07657 10.628 9.07292C10.6252 9.06928 10.6236 9.06481 10.6236 9.06021V8.26372C10.6236 8.19379 10.5958 8.12672 10.5464 8.07728C10.4969 8.02783 10.4298 8.00005 10.3599 8.00005H8.52891C8.45898 8.00005 8.39191 8.02783 8.34246 8.07728C8.29302 8.12672 8.26524 8.19379 8.26524 8.26372V15.6479C8.26524 15.7178 8.29302 15.7848 8.34246 15.8343C8.39191 15.8837 8.45898 15.9115 8.52891 15.9115H10.4582C10.5281 15.9115 10.5952 15.8837 10.6446 15.8343C10.6941 15.7848 10.7219 15.7178 10.7219 15.6479V11.9978C10.7219 10.9657 10.9176 9.96618 12.1972 9.96618C13.4585 9.96618 13.4749 11.1472 13.4749 12.0646V15.6482C13.4749 15.7181 13.5026 15.7852 13.5521 15.8346C13.6015 15.8841 13.6686 15.9119 13.7385 15.9119ZM4.06738 5.49299C4.06738 6.27511 4.7112 6.9186 5.49332 6.9186C6.27524 6.91853 6.91866 6.27465 6.91866 5.49273C6.91853 4.71081 6.27504 4.06738 5.49306 4.06738C4.71087 4.06738 4.06738 4.71094 4.06738 5.49299ZM4.52611 15.9119H6.45796C6.52789 15.9119 6.59496 15.8841 6.64441 15.8346C6.69386 15.7852 6.72164 15.7181 6.72164 15.6482V8.26372C6.72164 8.19379 6.69386 8.12672 6.64441 8.07728C6.59496 8.02783 6.52789 8.00005 6.45796 8.00005H4.52611C4.45618 8.00005 4.38911 8.02783 4.33966 8.07728C4.29021 8.12672 4.26243 8.19379 4.26243 8.26372V15.6482C4.26243 15.7181 4.29021 15.7852 4.33966 15.8346C4.38911 15.8841 4.45618 15.9119 4.52611 15.9119Z" fill="white"/>
</svg>
