<svg width="20" height="20" viewBox="0 0 20 20" fill="none" xmlns="http://www.w3.org/2000/svg">
<path opacity="0.4" d="M5.78293 17.1916C7.0246 17.9166 8.46626 18.3333 9.9996 18.3333C14.6913 18.3333 18.5913 14.1916 18.3163 9.5083C18.0329 4.67497 13.6413 0.949968 8.58293 1.7833C5.0996 2.3583 2.30793 5.1833 1.76626 8.66663C1.4496 10.6833 1.86626 12.5916 2.7746 14.1666L2.03293 16.925C1.86626 17.55 2.44126 18.1166 3.05793 17.9416L5.78293 17.1916Z" fill="white"/>
<path d="M14.1663 12.6417C14.1663 12.7917 14.133 12.95 14.058 13.1C13.857 13.5122 13.5137 13.8378 13.0913 14.0167C12.8413 14.125 12.5663 14.175 12.2747 14.175C11.8497 14.175 11.3913 14.075 10.9163 13.8666C10.433 13.6583 9.95801 13.3833 9.48301 13.0417C8.99967 12.6917 8.54967 12.3 8.11634 11.875C7.69361 11.4494 7.30361 10.9926 6.94967 10.5083C6.60801 10.0333 6.33301 9.55832 6.13301 9.08332C5.93301 8.60832 5.83301 8.14998 5.83301 7.71665C5.83301 7.43332 5.88301 7.15832 5.98301 6.90832C6.08301 6.64998 6.24134 6.41665 6.46634 6.20832C6.73301 5.94165 7.02467 5.81665 7.33301 5.81665C7.44967 5.81665 7.56634 5.84165 7.67467 5.89165C7.78301 5.94165 7.88301 6.01665 7.95801 6.12498L8.91634 7.49998C8.99134 7.60832 9.04967 7.69998 9.08301 7.79165C9.12467 7.88332 9.14134 7.96665 9.14134 8.04998C9.14134 8.14998 9.10801 8.24998 9.04967 8.34998C8.99134 8.44998 8.91634 8.54998 8.81634 8.64998L8.49967 8.98332C8.44967 9.03332 8.43301 9.08332 8.43301 9.14998C8.43301 9.18332 8.44134 9.21665 8.44967 9.24998C8.46634 9.28332 8.47467 9.30832 8.48301 9.33332C8.55801 9.47498 8.69134 9.64998 8.87467 9.86665C9.26483 10.3251 9.6912 10.7515 10.1497 11.1417C10.3663 11.325 10.5497 11.45 10.6913 11.525C10.7163 11.5333 10.7413 11.55 10.7663 11.5583C10.7997 11.575 10.833 11.575 10.8747 11.575C10.9497 11.575 10.9997 11.55 11.0497 11.5L11.3663 11.1833C11.4747 11.075 11.5747 11 11.6663 10.95C11.7663 10.8917 11.858 10.8583 11.9663 10.8583C12.0497 10.8583 12.133 10.875 12.2247 10.9167C12.3163 10.9583 12.4163 11.0083 12.5163 11.0833L13.8997 12.0666C14.008 12.1416 14.083 12.2333 14.133 12.3333C14.1413 12.425 14.1663 12.525 14.1663 12.6417Z" fill="white"/>
</svg>
