<svg width="519" height="212" viewBox="0 0 519 212" fill="none" xmlns="http://www.w3.org/2000/svg">
<g opacity="0.1">
<path d="M135.454 203.818C133.305 203.015 132.704 202.23 133.214 200.891C133.451 200.27 133.905 199.763 134.224 199.763C134.542 199.763 135.937 200.494 137.324 201.388C138.71 202.282 140.405 203.216 141.09 203.464L142.337 203.916L140.803 203.949C139.96 203.967 138.723 204.061 138.054 204.158C137.385 204.255 136.215 204.102 135.454 203.818ZM130.577 199.7C130.172 199.474 129.498 199.398 129.078 199.531C128.549 199.698 128.141 199.449 127.75 198.72C127.439 198.141 126.882 197.563 126.512 197.436C125.664 197.145 123.885 194.27 122.895 191.589C122.395 190.235 121.722 189.299 120.924 188.846C119.507 188.042 119.406 187.678 120.502 187.33C121.757 186.933 121.99 184.727 120.934 183.248C120.43 182.542 120.165 181.712 120.317 181.318C120.496 180.852 120.001 180.035 118.804 178.817C117.292 177.281 117.013 176.722 116.945 175.104C116.902 174.056 116.646 172.934 116.377 172.611C116.038 172.203 115.969 170.742 116.152 167.853C116.35 164.723 116.235 162.79 115.689 160.097C114.878 156.097 114.463 148.645 114.674 141.847C114.719 140.396 114.531 138.405 114.255 137.421C113.585 135.026 110.501 132.003 106.688 130.005C103.962 128.575 103.578 128.209 102.513 126.014C101.867 124.684 100.634 122.697 99.7713 121.598C98.9091 120.499 97.9716 118.885 97.688 118.011C96.7881 115.238 95.2016 112.452 94.1202 111.745C93.5447 111.369 92.8883 110.391 92.6615 109.571C92.2945 108.246 92.3913 107.875 93.5399 106.21C94.7854 104.404 94.8001 104.33 93.9584 104.111C91.8902 103.571 92.76 100.814 96.4723 96.1404C98.9397 93.0344 99.6625 90.6682 98.979 87.9346C98.7185 86.8928 98.4853 85.8031 98.4607 85.513C98.4361 85.2229 98.2507 84.9856 98.0486 84.9856C97.8465 84.9856 97.8854 84.605 98.135 84.1398C98.5195 83.423 98.4224 83.2184 97.4983 82.7984C96.1516 82.1862 94.118 82.7914 94.1102 83.8067C94.1007 85.0242 93.564 85.1139 91.7943 84.1937C90.8465 83.7009 89.8621 83.2977 89.6066 83.2977C89.3512 83.2977 88.3577 82.6236 87.3989 81.7996C86.4402 80.9756 85.4178 80.1137 85.127 79.8841C84.8362 79.6545 84.5982 79.0288 84.5982 78.4937C84.5982 77.9587 84.2247 77.1836 83.7682 76.7715C83.3116 76.3593 82.7201 75.3629 82.4535 74.5573C82.1033 73.4985 81.841 73.2203 81.507 73.5534C80.8102 74.2486 79.7784 74.1166 77.2742 73.0117C75.965 72.4342 74.6011 71.4478 74.0563 70.6845C73.5363 69.9559 72.5427 69.0667 71.8483 68.7085C70.7025 68.1174 70.416 68.122 68.7468 68.7579L66.9078 69.4585L61.2656 66.731C57.7949 65.0532 55.1013 63.4528 54.267 62.5726C52.9734 61.2079 52.9316 61.0597 53.362 59.368C53.7563 57.8183 53.6894 57.3389 52.8317 55.5714C52.2919 54.4588 51.1123 52.7499 50.2105 51.7738C49.3087 50.7978 48.6732 49.8338 48.7984 49.6317C48.9236 49.4296 48.2884 48.0676 47.3868 46.605C46.3625 44.9435 45.6396 43.1637 45.46 41.8611C45.2298 40.1914 44.9616 39.6806 44.1125 39.2946C43.2124 38.8855 42.9607 38.9377 42.4453 39.64C41.7195 40.6292 41.9258 41.6736 43.5308 45.1335C44.183 46.5395 44.857 48.6239 45.0286 49.7653C45.2002 50.9068 45.707 52.5573 46.1549 53.4331C47.2157 55.5074 46.5307 55.4708 44.8579 53.3638C43.8712 52.1211 43.6048 51.4395 43.8008 50.6601C44.0102 49.828 43.8041 49.4273 42.7786 48.6708C41.2233 47.5237 40.8942 46.7837 41.4655 45.7188C41.7986 45.0978 41.6459 44.4168 40.7998 42.7512C39.9406 41.0597 39.7609 40.2403 39.9736 38.9843C40.3214 36.9309 39.3979 35.0725 37.6764 34.3611C36.6825 33.9504 36.3398 33.491 36.1373 32.2973C35.9941 31.4528 35.7196 30.1462 35.5275 29.3938C35.3277 28.6111 35.3422 27.9245 35.5615 27.7893C35.7723 27.6594 35.6344 27.0804 35.255 26.5028C34.6962 25.6521 34.658 25.2495 35.0536 24.3833C35.3222 23.7952 35.4236 23.123 35.2789 22.8894C35.1342 22.6559 35.4947 21.958 36.0801 21.3386C36.6655 20.7193 37.4449 19.484 37.812 18.5936C38.1792 17.7032 39.3106 16.0526 40.3263 14.9256C41.342 13.7986 42.6297 11.8244 43.1878 10.5386C43.9625 8.7537 44.4166 8.19891 45.1073 8.19342C45.6049 8.18963 45.9856 8.42357 45.9532 8.71368C45.8186 9.92262 46.7768 9.55017 47.8531 7.97523C48.4875 7.04688 48.8298 6.22403 48.6138 6.14667C48.3977 6.06931 48.221 5.72007 48.221 5.37058C48.221 5.02109 47.3453 3.88613 46.275 2.84845C44.4999 1.12735 44.3859 0.899162 44.9761 0.248493C45.4544 -0.278671 45.5106 -0.665501 45.1917 -1.23402C44.6312 -2.23311 45.5156 -4.47048 46.4745 -4.47947C46.8706 -4.48326 46.9837 -4.61772 46.7405 -4.79596C46.1949 -5.19582 45.9477 -6.10391 46.0244 -7.42683C46.1468 -9.53977 45.6833 -10.4236 44.1086 -11.08C43.2592 -11.434 41.9632 -12.181 41.2285 -12.7401C40.4939 -13.2991 39.5617 -13.7565 39.1572 -13.7565C38.7526 -13.7565 36.9136 -14.1406 35.0705 -14.61C32.1073 -15.3648 31.5851 -15.3946 30.5586 -14.8675C28.4314 -13.7754 26.1777 -13.3302 25.259 -13.8208C24.5698 -14.1887 23.8177 -13.9615 21.1952 -12.593C19.4252 -11.6694 17.3108 -10.7704 16.4966 -10.5952C15.6823 -10.42 14.124 -9.82825 13.0337 -9.28017C9.94095 -7.72554 5.51063 -6.15842 4.28518 -6.18559C3.49429 -6.20313 4.02899 -6.54918 6.13326 -7.38163C9.70946 -8.79639 13.3842 -10.6388 13.7241 -11.1874C14.1427 -11.8632 13.234 -12.1056 12.1424 -11.6094C11.3387 -11.2441 10.8433 -11.2783 9.91592 -11.7631L8.72313 -12.3865L10.0206 -13.0559C11.4874 -13.8125 11.9488 -14.6686 11.6118 -16.0081C11.2854 -17.3053 13.0849 -18.2585 16.9616 -18.8418C19.0446 -19.1552 20.6281 -19.6768 21.6942 -20.4008C23.5742 -21.6775 23.2512 -22.6424 21.2242 -21.8049C20.2647 -21.4084 19.5657 -21.404 18.1447 -21.7858C16.4177 -22.2497 16.3562 -22.3159 17.1287 -22.8793C18.4212 -23.8222 21.0944 -24.3893 22.8507 -24.0933C23.9621 -23.9059 24.8725 -24.0371 25.8068 -24.5191L27.1569 -25.2156L26.2681 -26.1593C25.7793 -26.6784 25.3794 -27.2147 25.3794 -27.3511C25.3794 -27.7426 27.9258 -28.5256 29.1991 -28.5256C29.8346 -28.5256 31.5768 -28.9845 33.0707 -29.5455C34.5645 -30.1064 38.0111 -30.8722 40.7296 -31.2472C45.1389 -31.8555 46.0726 -31.863 49.3789 -31.316C51.4175 -30.9788 54.2274 -30.5767 55.6233 -30.4223C57.0192 -30.268 59.4899 -29.7781 61.1137 -29.3336C64.8851 -28.3014 67.3415 -28.314 71.5548 -29.3872C73.4153 -29.8611 75.2957 -30.1354 75.7335 -29.9968C76.1713 -29.8581 76.9156 -29.9509 77.3876 -30.2029C78.0379 -30.5501 78.5422 -30.5081 79.4701 -30.0294C80.3084 -29.597 81.3432 -29.4735 82.7521 -29.638C84.2385 -29.8114 85.54 -29.6318 87.4401 -28.9908C88.8868 -28.5029 90.4935 -28.1036 91.0106 -28.1036C91.9266 -28.1036 91.9297 -28.0881 91.1297 -27.5008C90.3453 -26.9248 90.343 -26.8846 91.0796 -26.5999C91.5036 -26.436 92.9756 -26.4192 94.3507 -26.5626C96.834 -26.8215 96.8555 -26.8142 97.5479 -25.4783L98.2451 -24.1335L99.15 -25.2656C99.67 -25.9162 100.906 -26.6533 102.055 -26.9984C103.793 -27.52 104.32 -27.5183 106.065 -26.9852C107.297 -26.6089 108.771 -26.4718 109.875 -26.6309C111.281 -26.8335 111.934 -26.7073 112.852 -26.0556C114.01 -25.233 114.042 -25.2326 115.069 -26.0267C115.642 -26.4699 116.822 -27.03 117.69 -27.2714C119.769 -27.8493 120.474 -29.0807 119.226 -29.9531C118.343 -30.5701 118.382 -30.6172 120.702 -31.7527C122.433 -32.5996 123.213 -32.792 123.55 -32.4554C123.888 -32.1188 123.884 -31.7486 123.538 -31.1027C122.947 -30.0019 123.682 -28.338 124.603 -28.6906C124.935 -28.8173 125.484 -28.8145 125.824 -28.6842C126.358 -28.4797 126.35 -28.3062 125.761 -27.4099C124.135 -24.9337 127.781 -25.6353 130.249 -28.2735C131.253 -29.3461 132.808 -29.6713 134.265 -29.1134C135.206 -28.7531 135.118 -28.4581 133.56 -26.7532C131.702 -24.7214 130.752 -24.3058 127.962 -24.3058C126.613 -24.3058 125.022 -24.0144 124.28 -23.6318C123.253 -23.1021 122.752 -23.0581 121.943 -23.4262C120.433 -24.1124 119.907 -23.5412 120.99 -22.3912L121.915 -21.4096L120.07 -20.8874C119.056 -20.6002 117.37 -20.3374 116.323 -20.3035C114.804 -20.2543 114.419 -20.0899 114.416 -19.4912C114.414 -18.9789 113.676 -18.4397 112.09 -17.793C106.951 -15.6976 102.592 -11.9196 104.171 -10.9291C104.466 -10.7435 104.936 -10.0747 105.214 -9.44287C105.534 -8.71527 106.151 -8.20784 106.897 -8.05888C107.544 -7.92953 109.216 -7.26265 110.612 -6.57691C112.008 -5.89117 113.721 -5.20596 114.419 -5.05421C116.341 -4.63644 116.357 -4.59247 115.463 -2.32753C114.697 -0.389805 114.682 -0.1133 115.275 1.0313C115.63 1.7173 116.154 2.27184 116.439 2.26361C117.825 2.22361 119.125 0.947556 119.932 -1.16619C120.702 -3.18086 121.053 -3.55667 123.262 -4.73373C126.522 -6.47089 127.878 -8.18182 127.517 -10.103C127.281 -11.3544 127.403 -11.6481 128.477 -12.4108C129.154 -12.8914 130.05 -14.0418 130.468 -14.9672C131.403 -17.0356 132.905 -17.7526 135.439 -17.3394C137.686 -16.973 140.343 -15.55 140.664 -14.5412C140.795 -14.1271 140.686 -13.3835 140.42 -12.8886C140.018 -12.1392 140.094 -11.8227 140.875 -10.9934L141.813 -9.99783L143.344 -10.7895C144.186 -11.2249 145.535 -12.0743 146.343 -12.677L147.811 -13.7729L148.156 -12.8428C148.345 -12.3312 148.399 -11.6492 148.275 -11.3271C148.151 -11.005 148.248 -10.373 148.489 -9.92253C148.761 -9.41579 148.782 -8.84264 148.545 -8.4192C148.277 -7.94178 148.456 -7.21662 149.137 -6.02095C150.112 -4.30808 150.112 -4.30668 149.256 -3.70824C148.129 -2.92077 148.852 -2.08561 150.089 -2.74603C151.317 -3.40191 152.724 -3.31661 153.591 -2.53362C154.873 -1.37619 153.807 0.00848007 150.404 1.6056C146.702 3.34278 145.053 3.68689 140.222 3.72953C136.654 3.76101 136.182 3.87449 132.714 5.53312C130.678 6.50661 129.012 7.47016 129.012 7.67433C129.012 8.54503 129.654 8.46926 132.115 7.30786C133.565 6.62354 135.434 6.07687 136.324 6.07668C137.844 6.07636 137.9 6.12328 137.425 7.00832C137.15 7.5209 136.557 8.23771 136.107 8.60122C135.399 9.1727 135.358 9.41396 135.801 10.3836C136.465 11.8377 138.199 12.5374 140.274 12.1882L141.914 11.9122L140.653 12.7799C139.96 13.2571 138.817 13.7714 138.115 13.9227C137.413 14.074 135.969 14.6346 134.907 15.1684C133.829 15.7103 132.745 15.997 132.454 15.8176C131.785 15.4049 132.492 14.7857 134.667 13.8791C136.601 13.0728 136.292 12.2163 134.207 12.6065C133.395 12.7584 130.762 13.7478 128.356 14.8051C124.6 16.4553 123.945 16.8911 123.727 17.8842C123.458 19.1048 122.541 19.6822 119.317 20.6606C118.289 20.9727 116.957 21.727 116.356 22.3367C115.756 22.9465 114.607 23.8595 113.803 24.3655C112.998 24.8716 112.228 25.7583 112.091 26.3359C111.866 27.2878 111.813 27.3103 111.531 26.577C111.001 25.203 110.204 26.5463 110.158 28.8892C110.111 31.2896 108.891 32.9271 106.216 34.1809C103.473 35.4664 99.5708 38.5042 98.7801 39.969C98.082 41.2621 98.0528 41.7659 98.4829 45.0898C98.8841 48.1907 98.8602 48.9688 98.3321 49.9875C97.9378 50.7482 97.4777 51.1118 97.0949 50.9653C96.1873 50.6178 95.0772 46.892 95.3883 45.2375C95.6044 44.0883 95.4612 43.6528 94.6028 42.8483C93.9109 42.1999 93.2723 41.9534 92.7294 42.1253C92.2763 42.2688 90.9951 41.9966 89.881 41.5202C88.1739 40.7902 87.6292 40.729 86.4104 41.1303C85.5841 41.4023 84.7632 42.0475 84.4944 42.6361C84.0944 43.5118 83.8295 43.6243 82.7249 43.3872C82.0104 43.2339 80.9118 42.8465 80.2836 42.5263C78.7363 41.7377 77.8698 41.7927 76.1318 42.7896C75.3212 43.2546 73.667 44.1446 72.4558 44.7673C71.0639 45.483 70.1078 46.2975 69.8571 46.9812C69.6389 47.5761 68.859 49.895 68.1239 52.1344L66.7873 56.2061L67.47 58.8343C68.7243 63.6631 70.4694 65.1086 74.1054 64.3307C76.8465 63.7443 78.4927 62.5559 79.0978 60.7268C79.4821 59.5652 79.8966 59.1812 81.1374 58.8374C83.0049 58.32 83.7849 58.3009 84.5022 58.755C85.0941 59.1297 84.886 59.7464 82.2358 65.4704C80.4173 69.398 80.5483 69.7494 83.6637 69.3011C86.5021 68.8926 89.0966 69.2061 89.3997 69.994C89.5179 70.3011 89.3257 72.3737 88.9726 74.5998C88.3411 78.5821 88.3456 78.6712 89.2548 80.1387C89.763 80.959 90.7159 81.9073 91.3723 82.2459C92.4201 82.7865 92.7489 82.7852 94.0673 82.2357C96.1623 81.3624 97.3 81.4548 98.7551 82.6162C99.9186 83.5449 100.083 83.571 100.997 82.9734C101.54 82.6187 102.281 81.7395 102.643 81.0197C103.459 79.3966 104.835 78.2557 105.991 78.2434C106.474 78.2382 107.316 77.7593 107.863 77.1791C108.972 76.0007 110.926 75.6169 109.971 76.7648C109.17 77.7281 108.712 80.8267 109.228 81.7896C109.658 82.5913 109.693 82.5867 110.476 81.6224C111.033 80.9359 111.145 80.4957 110.841 80.1919C110.114 79.4671 110.333 78.8648 111.685 77.8677C113.088 76.8325 114.174 76.9387 115.385 78.2298C116.273 79.1764 121.015 80.456 122.374 80.1158C124.443 79.5976 130.035 82.9893 132.136 86.037C133.136 87.4882 136.332 88.9486 137.737 88.5967C140.628 87.8729 144.591 90.7622 145.518 94.269C145.794 95.3134 146.21 96.2862 146.443 96.4307C147.06 96.8143 146.135 98.3298 144.114 100.248C142.823 101.473 142.515 102 142.878 102.363C143.241 102.725 143.838 102.407 145.272 101.089C147.357 99.1717 148.053 98.9771 149.098 100.019C149.733 100.653 149.714 100.782 148.843 101.707C148.324 102.258 147.6 102.721 147.233 102.735C146.847 102.751 147.003 102.936 147.604 103.175C148.431 103.505 148.862 103.412 149.719 102.721C151.953 100.921 152.478 100.834 154.462 101.94C155.751 102.659 156.268 103.206 156.203 103.785C156.022 105.394 156.402 105.75 157.521 105.019C158.41 104.438 159.019 104.41 161.993 104.817C165.156 105.249 165.571 105.421 167.088 106.935C168.215 108.059 169.482 108.798 171.075 109.26C173.212 109.88 173.444 110.069 173.832 111.505C174.394 113.588 173.736 115.899 171.954 118.094C171.193 119.031 170.261 120.408 169.882 121.153C169.503 121.897 168.697 123.001 168.091 123.606C167.065 124.629 167.008 124.885 167.264 127.316C167.763 132.063 165.435 140.92 163.19 142.814C162.459 143.431 161.834 143.576 160.674 143.397C159.722 143.25 159.016 143.345 158.83 143.645C158.664 143.913 157.741 144.478 156.778 144.9C155.814 145.322 154.381 146.218 153.591 146.891C152.225 148.055 152.179 148.184 152.639 149.574C153.169 151.176 152.812 153.074 151.676 154.692C151.309 155.215 151.008 156.105 151.008 156.67C151.008 157.234 150.567 158.284 150.027 159.002C149.488 159.72 148.447 161.364 147.715 162.656C145.913 165.832 144.83 166.382 142.217 165.448C139.95 164.638 138.741 164.541 138.741 165.17C138.741 165.407 139.193 165.806 139.746 166.057C140.298 166.308 141.159 167.33 141.658 168.329C142.403 169.815 142.481 170.331 142.093 171.18C141.493 172.496 139.195 173.6 137.06 173.6C135.169 173.6 134.699 174.062 135.353 175.279C135.756 176.031 135.485 177.24 134.705 178.168C134.642 178.243 133.979 177.989 133.233 177.604C131.452 176.685 130.821 177.271 131.721 179.007C132.087 179.714 132.784 180.418 133.269 180.571C134.102 180.835 134.111 180.893 133.433 181.64C133.039 182.075 132.834 182.735 132.978 183.109C133.132 183.511 132.788 184.378 132.134 185.234C131.071 186.624 131.056 186.72 131.737 187.758C132.127 188.351 132.735 188.947 133.088 189.083C134.362 189.57 134.573 191.236 133.602 193.136C132.628 195.039 132.479 196.946 133.232 197.852C133.917 198.675 131.613 200.278 130.577 199.7ZM99.403 16.9387C100.533 14.5826 102.636 12.8279 104.33 12.8279C105.549 12.8279 105.563 13.0253 104.447 14.4409L103.569 15.554L104.47 16.2814C105.196 16.8675 105.57 16.9182 106.397 16.5423C106.962 16.2856 107.54 15.7086 107.683 15.26C107.877 14.6496 108.193 14.507 108.938 14.6935C109.627 14.8661 110.059 14.7184 110.342 14.2127C111.202 12.6806 109.015 10.7212 107.405 11.5808C106.253 12.1959 104.747 10.9721 105.069 9.68159C105.188 9.20325 104.943 8.37074 104.519 7.81222C103.644 6.66105 102.314 6.53983 99.403 7.34602C98.3561 7.63593 97.1623 7.86014 96.7501 7.84423C96.338 7.82833 96.1113 7.99372 96.2463 8.21175C96.3814 8.42979 96.3379 8.61242 96.1497 8.61758C95.9615 8.62272 95.3339 8.99 94.755 9.43372L93.7024 10.2405L94.8845 10.6888C95.8085 11.0393 96.3533 10.9893 97.3797 10.4598C98.5859 9.83751 98.8093 9.83785 100.126 10.4641C100.919 10.8414 102.001 11.0351 102.55 10.8978C103.095 10.7613 103.657 10.8381 103.8 11.0685C103.946 11.3039 103.35 11.6068 102.439 11.7603C99.9637 12.1776 98.6776 13.2059 96.882 16.2038C95.3822 18.7077 95.2962 19.0097 95.894 19.6716C96.4805 20.3211 96.6425 20.3314 97.4472 19.77C97.9412 19.4252 98.8213 18.1511 99.403 16.9387ZM107.088 19.5433C108.594 18.777 108.739 18.5845 108.208 18.0551C107.677 17.5257 107.342 17.5603 105.616 18.3221C103.589 19.2165 102.945 20.4235 104.496 20.4235C104.97 20.4235 106.137 20.0274 107.088 19.5433ZM114.588 16.3548C115.469 15.7391 115.502 15.6183 114.88 15.2715C113.966 14.7608 111.247 15.6407 111.247 16.4474C111.247 17.2787 113.349 17.2203 114.588 16.3548ZM146.355 198.581C146.355 198.395 146.583 198.016 146.863 197.737C147.142 197.459 147.21 197.231 147.015 197.231C146.82 197.231 146.432 197.542 146.153 197.923C145.752 198.469 145.475 198.516 144.837 198.147C144.381 197.882 144.27 197.673 144.582 197.666C144.887 197.658 145.018 197.463 144.875 197.231C144.598 196.785 145.324 196.664 147.413 196.806C149.276 196.933 149.464 197.204 148.312 198.108C147.239 198.95 146.355 199.164 146.355 198.581ZM499.609 187.991C498.399 187.226 500.919 185.537 507.167 182.925C508.912 182.196 511.571 180.671 513.076 179.536C515.634 177.607 515.847 177.523 516.354 178.245C517.123 179.342 516.67 180.135 514.79 180.981C513.891 181.385 512.762 182.168 512.279 182.722C511.797 183.275 511.021 183.728 510.555 183.728C510.089 183.728 508.993 184.367 508.12 185.149C505.132 187.824 501.346 189.088 499.609 187.991ZM470.006 182.509C469.566 182.231 469.542 181.945 469.9 181.277C470.157 180.799 470.367 179.812 470.367 179.085C470.367 177.896 470.463 177.797 471.319 178.097C471.842 178.281 472.936 178.456 473.751 178.486C474.565 178.517 475.378 178.569 475.558 178.603C476.259 178.734 474.386 180.862 472.702 181.846C470.697 183.018 470.78 182.998 470.006 182.509ZM518.884 178.819C518.737 178.672 519.086 178.184 519.659 177.734C520.522 177.057 520.622 176.771 520.245 176.067C519.699 175.049 520.51 173.957 522.389 173.181C523.844 172.579 524.21 171.359 523.82 168.414C523.552 166.388 523.585 166.262 524.239 166.802C524.753 167.226 524.879 167.76 524.696 168.734C524.495 169.802 524.676 170.356 525.568 171.415C526.533 172.558 526.819 172.682 527.569 172.282C528.317 171.882 528.405 171.919 528.169 172.531C528.018 172.925 527.894 173.322 527.894 173.413C527.894 173.504 527.275 173.895 526.519 174.281C525.763 174.667 524.288 175.688 523.241 176.551C521.538 177.953 519.786 179.086 519.321 179.086C519.228 179.086 519.031 178.966 518.884 178.819ZM474.155 173.369C473.264 172.423 473.099 172.387 472.243 172.946C471.153 173.659 469.104 173.242 467.461 171.974C466.585 171.297 466.524 171.079 466.976 170.237C467.362 169.518 467.375 169.014 467.026 168.252C466.77 167.691 466.56 166.86 466.56 166.407C466.56 165.384 465.895 165.336 465.344 166.318C465.117 166.722 464.81 166.932 464.662 166.784C464.514 166.636 465.004 165.821 465.751 164.972C467.589 162.884 466.871 162.317 464.444 163.939C463.397 164.638 462.474 165.402 462.391 165.636C462.308 165.87 461.805 165.147 461.274 164.029C460.697 162.816 459.702 161.598 458.807 161.01C457.463 160.127 457.007 160.054 454.425 160.31C450.639 160.686 446.986 161.618 444.595 162.817C443.508 163.362 441.387 163.92 439.751 164.091C438.151 164.259 435.605 164.86 434.095 165.427C431.785 166.294 431.127 166.385 429.957 166C428.387 165.483 427.735 164.418 428.751 164.029C429.118 163.888 429.786 162.92 430.234 161.877C430.951 160.208 430.991 159.688 430.565 157.532C430.213 155.747 430.204 154.058 430.529 151.311C430.775 149.237 430.869 147.131 430.738 146.632C430.608 146.133 430.812 144.911 431.193 143.917C431.864 142.164 432.026 142.049 436.564 140.132C439.138 139.044 441.772 138.154 442.419 138.154C444.167 138.154 446.332 136.495 447.525 134.24C448.263 132.846 448.775 132.316 449.217 132.487C450.453 132.963 450.697 132.869 450.602 131.956C450.54 131.368 450.793 130.94 451.297 130.781C451.733 130.643 452.537 129.875 453.085 129.073C453.646 128.253 454.8 127.329 455.726 126.958C457.27 126.34 457.424 126.349 458.264 127.111C459.813 128.516 460.912 128.926 461.436 128.296C461.691 127.989 461.779 127.618 461.631 127.47C461.147 126.987 463.362 124.214 464.445 123.948C465.027 123.805 466.221 123.329 467.099 122.89C468.468 122.206 468.949 122.16 470.483 122.571C473.79 123.457 473.899 123.602 472.669 125.456C471.087 127.84 471.507 128.773 475.387 131.497C477.178 132.755 478.869 133.709 479.145 133.618C479.42 133.526 480.292 132.563 481.081 131.478C482.157 129.998 482.574 128.923 482.746 127.183C482.991 124.712 484.176 121.275 484.783 121.275C484.984 121.275 485.444 122.292 485.806 123.534C486.168 124.776 486.927 126.225 487.492 126.755C488.812 127.993 489.579 131.453 488.986 133.498C488.594 134.853 488.669 135.071 490.016 136.452C490.815 137.272 492.08 139.273 492.826 140.897C493.572 142.522 494.917 144.82 495.814 146.005L497.447 148.16L496.983 151.488C496.646 153.903 496.125 155.512 495.084 157.351C493.49 160.168 491.106 162.856 489.85 163.254C489.398 163.397 488.351 164.454 487.524 165.603C486.696 166.752 485.833 167.693 485.605 167.693C485.378 167.693 484.41 168.679 483.455 169.884C481.862 171.894 481.569 172.078 479.909 172.109C478.636 172.133 477.661 172.478 476.615 173.274L475.129 174.404L474.155 173.369ZM267.896 164.497C267 163.603 266.85 163.146 267.05 161.915C267.239 160.757 267.059 160.076 266.255 158.895C265.683 158.056 265.216 157.163 265.216 156.91C265.216 156.658 264.468 155.452 263.554 154.229C262.141 152.34 261.85 151.585 261.617 149.195C261.206 144.977 259.856 140.412 258.042 137.103C257.15 135.476 256.293 133.364 256.137 132.41C255.807 130.378 256.634 127.355 258.522 123.691L259.778 121.254L259.072 119.135C258.677 117.949 258.484 116.546 258.634 115.95C258.81 115.253 258.621 114.422 258.088 113.544C257.64 112.806 256.976 111.159 256.611 109.882C256.123 108.177 255.444 107.068 254.05 105.704C251.369 103.081 251.021 102.048 251.853 99.1924C253.546 93.3802 251.717 89.9903 247.247 90.659C245.506 90.9193 245.44 90.8869 245.194 89.6603C245.005 88.7192 244.494 88.1656 243.21 87.5121C241.542 86.6631 240.827 86.6599 238.779 87.4922C238.314 87.6813 236.41 88.3365 234.549 88.9482C231.75 89.868 230.91 89.9866 229.692 89.6342C228.538 89.3003 227.566 89.3867 225.204 90.033C222.764 90.7009 221.88 90.7726 220.561 90.4094C217.81 89.6516 213.083 85.4014 212.411 83.0809C211.89 81.2852 208.655 77.1001 207.553 76.7986C206.853 76.6069 206.767 76.4586 207.196 76.1827C207.627 75.9052 207.552 75.7648 206.879 75.5892C205.81 75.3103 205.703 74.4388 206.737 74.4298C207.37 74.4242 207.385 74.3639 206.843 74.0143C206.443 73.7566 206.399 73.6028 206.723 73.5988C207.059 73.5945 206.931 73.0742 206.354 72.0995C205.543 70.7277 205.526 70.5465 206.146 69.8632C208.039 67.7771 208.453 63.2856 207.015 60.4557C206.328 59.1048 206.769 57.2387 208.235 55.2986C208.787 54.5681 209.864 52.7908 210.629 51.3489C211.967 48.8266 214.95 45.32 215.757 45.32C216.65 45.32 219.533 42.2288 219.533 41.2707C219.533 39.1076 220.829 36.9509 222.943 35.5979C224.078 34.8709 225.409 33.6278 225.9 32.8354C226.904 31.2148 227.046 31.1619 228.216 31.9749C228.675 32.2939 229.815 32.683 230.75 32.8394C232.175 33.078 232.857 32.9063 234.979 31.7738C238.632 29.8252 240.889 29.3386 245.068 29.5986C247.824 29.7702 249.065 29.6605 250.401 29.1272C252.369 28.3419 254.069 28.8066 253.609 30.0038C253.471 30.3635 253.555 30.8955 253.797 31.186C254.101 31.5516 254.099 32.0753 253.789 32.8872C253.4 33.9072 253.487 34.2108 254.45 35.2137C255.059 35.848 256.15 36.4853 256.874 36.6297C260.273 37.308 261.24 37.7472 261.942 38.9328C262.456 39.8012 263.13 40.2471 264.245 40.4557C265.112 40.6179 266.37 41.0341 267.042 41.3805C268.182 41.9688 268.33 41.9474 269.281 41.0561C269.921 40.4569 270.211 39.8225 270.061 39.351C269.929 38.9381 270.029 38.2133 270.283 37.7404C270.938 36.5205 272.796 36.6402 275.697 38.0892C278.858 39.6678 284.852 40.7941 286.977 40.2088C287.999 39.9272 288.982 39.9235 289.876 40.1979C292.799 41.094 294.296 40.3926 294.695 37.9397C294.827 37.1251 295.054 36.4585 295.198 36.4585C295.471 36.4585 295.614 35.2336 295.654 32.5552C295.667 31.6849 295.873 30.9728 296.112 30.9728C296.397 30.9728 296.383 30.6672 296.071 30.0865C295.551 29.1168 294.496 29.139 291.972 30.1726C290.774 30.6627 290.441 30.6419 289.368 30.0098C287.978 29.1902 286.55 29.0673 286.139 29.7316C285.833 30.2256 283.67 29.8794 282.497 29.1485C281.654 28.6235 280.866 27.0607 280.866 25.9132C280.866 25.4731 280.438 24.8121 279.915 24.4443C279.105 23.875 279.057 23.7139 279.598 23.3612C279.946 23.1334 280.664 23.0484 281.193 23.1724C281.867 23.3306 282.486 23.0658 283.269 22.2853C284.005 21.5509 284.9 21.1455 285.903 21.0924C286.739 21.0481 287.95 20.6656 288.594 20.2423C289.991 19.3235 293.165 19.5788 295.627 20.8082C298.947 22.4661 301.896 22.3686 303.082 20.5617C303.7 19.6216 303.703 19.4242 303.117 18.5321C302.76 17.9885 301.045 16.7362 299.306 15.7492L296.145 13.9546L296.737 12.8118C297.063 12.1833 297.223 11.5626 297.092 11.4326C296.962 11.3026 297.012 10.9462 297.203 10.6407C297.394 10.3351 297.588 9.83992 297.634 9.54025C297.731 8.90109 297.049 9.07751 293.685 10.5616C291.732 11.4231 291.442 11.6871 291.875 12.2078C292.159 12.5489 292.796 12.8363 293.291 12.8466C293.985 12.861 293.821 13.06 292.572 13.7175C291.055 14.5158 290.886 14.5262 289.9 13.8816C289.056 13.3305 288.946 13.0741 289.346 12.5937C289.742 12.1169 289.683 11.9334 289.057 11.6987C288.623 11.5362 288.065 11.1319 287.815 10.8001C286.604 9.18916 282.76 13.4271 281.642 17.6065C281.117 19.5682 281.134 19.6703 282.122 20.4136L283.147 21.185L281.267 21.5719C280.232 21.7848 278.838 21.8096 278.169 21.6271C276.933 21.2905 275.368 21.7979 275.368 22.535C275.368 22.7516 275.08 22.8186 274.728 22.6839C274.376 22.5492 273.817 22.6631 273.486 22.9371C272.973 23.3621 273.031 23.7103 273.882 25.3063C274.803 27.0351 274.831 27.2716 274.257 28.421C273.537 29.8611 272.867 29.754 271.849 28.0359C271.14 26.8382 271.145 26.8106 272.083 26.6777C273.268 26.51 273.344 25.758 272.195 25.5748C269.574 25.1568 268.177 23.7791 268.177 21.6139C268.177 19.9242 266.607 18.0617 264.703 17.4926C263.713 17.1969 262.638 16.576 262.313 16.1128C261.987 15.6496 261.035 14.9848 260.197 14.6354C259.359 14.286 258.421 13.6408 258.113 13.2016C257.67 12.5712 257.379 12.4953 256.731 12.8413C256.279 13.0824 255.91 13.5512 255.91 13.8831C255.91 14.9787 261.301 19.9353 263.937 21.2624C266.731 22.6695 267.167 23.172 265.226 22.7466C263.495 22.3674 263.024 22.747 263.616 24.0432C264.032 24.9537 263.964 25.2307 263.127 26.0325L262.155 26.9641L262.376 25.7071C262.727 23.7117 260.09 20.8455 257.903 20.8455C257.102 20.8455 254.022 17.865 253.215 16.3084C252.353 14.6452 251.393 14.3239 250.034 15.2432C247.987 16.628 246.452 17.0962 244.846 16.8256C242.713 16.466 241.371 17.2081 241.711 18.5593C241.888 19.2647 241.789 19.5795 241.391 19.5795C241.073 19.5795 240.261 20.054 239.585 20.634C238.909 21.2139 238.21 21.6886 238.032 21.6889C237.509 21.6896 236.033 24.3556 236.031 25.3027C236.029 26.2086 234.375 27.9934 232.779 28.8114C232.271 29.0719 231.088 29.285 230.15 29.285C228.86 29.285 228.331 29.497 227.978 30.1567C227.514 31.0206 227.5 31.0186 226.416 29.9372C225.399 28.9226 224.813 28.6687 222.761 28.3519C221.683 28.1855 221.501 25.7503 222.307 22.281C222.652 20.7979 222.821 19.1359 222.683 18.5877C222.282 16.9946 223.537 16.0551 225.636 16.3768C230.483 17.1195 233.318 17.1605 233.982 16.4976C234.895 15.5867 235.307 12.5825 234.75 10.8981C234.387 9.79945 233.887 9.3503 232.395 8.78205C230.202 7.94632 230.155 7.13789 232.3 7.11641C233.117 7.10822 234.296 6.76802 234.919 6.36041C235.543 5.9528 236.233 5.72991 236.452 5.86508C237.05 6.23375 239.314 4.93178 240.066 3.78689C240.429 3.2336 241.145 2.67453 241.656 2.54453C242.167 2.41452 243.537 1.42374 244.701 0.342804C246.35 -1.18963 247.215 -1.67011 248.629 -1.83851C250.381 -2.04713 252.143 -3.48431 251.316 -4.03015C250.802 -4.3694 250.372 -6.41268 250.658 -7.15699C250.794 -7.50964 251.393 -8.11705 251.989 -8.50679L253.073 -9.21541L252.795 -7.47911C252.553 -5.97211 252.615 -5.7592 253.262 -5.86699C253.671 -5.9353 254.438 -6.22746 254.964 -6.51622C255.767 -6.95592 255.964 -6.93454 256.175 -6.38472C256.538 -5.44236 255.53 -4.33427 254.834 -4.91027C254.45 -5.22842 254.206 -5.2169 253.991 -4.87044C253.77 -4.51302 253.597 -4.53244 253.342 -4.94321C253.151 -5.25138 252.898 -5.40665 252.779 -5.28826C252.661 -5.16987 252.999 -4.52845 253.531 -3.8629C254.427 -2.74099 254.598 -2.68774 255.876 -3.13219C256.971 -3.51284 257.497 -3.48688 258.428 -3.00614C259.48 -2.46341 259.836 -2.48927 261.858 -3.25574C263.629 -3.92728 264.328 -4.01339 265.112 -3.65699C265.833 -3.32912 266.367 -3.33589 267.038 -3.68133C268.94 -4.66208 269.467 -5.40161 269.231 -6.75906C268.881 -8.77114 269.522 -9.43021 271.211 -8.79425C272.36 -8.36151 272.696 -8.3787 273.216 -8.89686C273.765 -9.44546 273.718 -9.64811 272.817 -10.6052C271.95 -11.5259 271.889 -11.7548 272.418 -12.1106C272.761 -12.3414 274.046 -12.4241 275.273 -12.2944C277.52 -12.057 280.319 -12.9325 279.832 -13.7199C279.404 -14.4095 276.826 -14.6087 274.641 -14.121C272.704 -13.6884 272.195 -13.7234 270.71 -14.3914C268.404 -15.429 268.132 -16.6428 269.714 -18.8423C271.75 -21.6733 272.122 -22.5755 271.542 -23.2727C270.684 -24.3051 269.84 -23.9685 267.878 -21.8109C266.841 -20.6708 265.428 -19.5047 264.738 -19.2196C264.048 -18.9345 263.195 -18.1439 262.842 -17.4626C262.267 -16.3531 262.268 -16.1206 262.85 -15.2332C263.208 -14.6883 263.887 -14.1203 264.359 -13.971C265.656 -13.5601 265.399 -12.789 263.543 -11.5222C262.973 -11.1325 262.211 -10.0302 261.851 -9.07259C261.401 -7.8726 260.715 -7.05375 259.646 -6.43806C258.139 -5.5701 258.071 -5.5667 257.238 -6.31853C256.767 -6.74413 256.266 -7.61216 256.127 -8.24749C255.987 -8.88282 255.351 -10.025 254.715 -10.7856L253.557 -12.1687L252.09 -11.2762C251.283 -10.7854 250.242 -10.3873 249.777 -10.3916C248.434 -10.4039 246.88 -11.8504 246.776 -13.1843C246.725 -13.8471 246.552 -14.7145 246.393 -15.1118C246.014 -16.057 247.908 -17.8296 249.876 -18.3717C251.852 -18.9159 255.859 -21.7173 256.541 -23.0317C256.845 -23.6164 257.874 -24.793 258.828 -25.6463C259.782 -26.4997 260.563 -27.3859 260.563 -27.6158C260.563 -27.8457 261.467 -28.3552 262.572 -28.748C263.677 -29.1409 265.533 -29.8536 266.696 -30.332C268.124 -30.9192 269.91 -31.2297 272.195 -31.288C276.188 -31.3899 278.799 -30.8619 280.953 -29.5172C282.034 -28.8424 282.887 -28.6123 283.704 -28.7751C285.164 -29.0665 292.949 -26.6593 293.273 -25.816C293.599 -24.9685 291.367 -24.1684 289.446 -24.4444C288.566 -24.5708 286.746 -24.9089 285.402 -25.1957C283.592 -25.5817 282.834 -25.5939 282.482 -25.2426C282.13 -24.8913 282.306 -24.6321 283.16 -24.2438C283.795 -23.9555 284.589 -23.1887 284.925 -22.5399C285.782 -20.8879 288.524 -19.5412 289.939 -20.0779C291.299 -20.5936 291.29 -20.7562 289.855 -21.5326C288.528 -22.2506 289.141 -22.4059 290.807 -21.7739C292.137 -21.2693 293.645 -21.897 293.294 -22.8096C293.129 -23.237 293.591 -23.5455 294.896 -23.8789C297.686 -24.5923 297.891 -24.6942 297.659 -25.2588C296.784 -27.3942 296.771 -27.3329 298.045 -27.1878C298.725 -27.1103 299.222 -26.8203 299.165 -26.5338C299.109 -26.2506 299.463 -25.8054 299.952 -25.5444C300.686 -25.1524 301.266 -25.292 303.285 -26.3478C306.245 -27.8959 308.55 -28.4006 309.409 -27.689C309.889 -27.2922 310.683 -27.2894 312.983 -27.6765C314.61 -27.9502 316.126 -28.0602 316.352 -27.921C316.578 -27.7817 316.887 -27.8691 317.039 -28.1152C317.373 -28.6532 316.451 -29.8741 315.946 -29.5629C315.337 -29.1873 313.337 -29.8602 313.772 -30.2943C314.21 -30.7315 325.982 -27.995 326.686 -27.2923C327.161 -26.8185 328.665 -27.4505 328.665 -28.1239C328.665 -28.3508 327.825 -28.9434 326.799 -29.4407C323.618 -30.9826 323.413 -33.4522 326.405 -34.2013C328.142 -34.6361 328.893 -34.1345 331.294 -30.9358C334.412 -26.783 334.333 -26.9943 333.314 -25.5671C332.56 -24.5102 332.514 -24.2629 333.038 -24.0625C334.029 -23.6829 336.152 -25.0113 336.451 -26.1986C336.801 -27.5898 336.147 -28.7754 334.586 -29.5805C333.36 -30.2134 332.471 -31.3732 332.471 -32.3425C332.471 -32.6729 332.932 -32.7554 333.846 -32.5887C335.217 -32.3389 336.352 -32.8349 339.457 -35.0427C340.167 -35.5476 341.367 -35.8803 342.578 -35.9077C345.033 -35.9632 345.828 -36.3745 345.121 -37.2238C344.844 -37.5569 344.706 -37.9172 344.813 -38.0246C345.354 -38.5635 352.317 -39.5346 353.921 -39.2947C355.464 -39.0638 355.942 -39.1887 357.212 -40.1548C358.029 -40.7764 358.697 -41.4523 358.697 -41.6568C358.697 -42.1726 355.001 -42.1266 354.679 -41.6067C354.235 -40.8915 353.661 -41.1404 353.823 -41.9776C353.959 -42.6845 353.601 -42.7995 350.52 -43.0388C342.107 -43.6923 341.423 -43.8456 342.432 -44.8525C343.32 -45.7377 345.496 -45.7206 347.318 -44.814C348.064 -44.4425 349.301 -44.1386 350.066 -44.1386C350.83 -44.1386 351.574 -43.9487 351.718 -43.7166C351.861 -43.4845 352.602 -43.2946 353.364 -43.2946C355.474 -43.2946 359.553 -42.3856 359.297 -41.9724C359.172 -41.7713 359.567 -41.6067 360.173 -41.6067C360.78 -41.6067 361.886 -41.2797 362.631 -40.8801C363.632 -40.3426 365.031 -40.1492 368.003 -40.1373C371.198 -40.1246 372.26 -39.9609 373.184 -39.3386C373.824 -38.9081 374.345 -38.4353 374.342 -38.2879C374.338 -38.1405 373.362 -37.4842 372.172 -36.8294C369.299 -35.2479 369.906 -34.5587 373.382 -35.4571C375.633 -36.0391 376.15 -36.0428 378.014 -35.4906C379.543 -35.0376 380.498 -34.9794 381.535 -35.2761C382.57 -35.5724 383.633 -35.5087 385.436 -35.0426C387.318 -34.5563 388.293 -34.5068 389.485 -34.8372C392.206 -35.5912 395.554 -35.3782 397.496 -34.3277C398.462 -33.8055 400.242 -32.8393 401.452 -32.1805C403.598 -31.0129 403.692 -31 405.18 -31.6656C406.426 -32.2227 407.121 -32.2693 408.958 -31.9189C410.784 -31.5706 411.449 -31.6131 412.478 -32.1437C413.484 -32.6628 413.646 -32.9179 413.262 -33.3796C412.519 -34.2723 415.154 -34.6042 418.392 -34.0257C419.875 -33.7607 421.754 -33.4962 422.569 -33.4379C423.383 -33.3796 424.974 -32.9167 426.104 -32.4092C427.827 -31.6353 429.128 -31.46 434.171 -31.3218C438.956 -31.1907 440.479 -30.9997 441.633 -30.386C442.805 -29.763 444.141 -29.6046 448.583 -29.5614C452.669 -29.5216 454.501 -29.3283 455.713 -28.8085C457.67 -27.9695 458.453 -28.2772 457.387 -29.4668C456.621 -30.3224 456.626 -30.3236 459.581 -30.0308C464.532 -29.5401 470.471 -28.4592 472.482 -27.683C473.529 -27.2788 475.524 -26.8091 476.916 -26.6392C478.308 -26.4694 480.339 -25.8794 481.429 -25.3282C483.084 -24.4915 483.622 -24.3991 484.684 -24.7687C486.138 -25.2741 487.081 -24.9102 489.3 -22.9871L490.679 -21.7922L489.64 -21.5319C488.597 -21.2708 485.827 -21.9548 484.873 -22.7092C484.592 -22.931 484.199 -23.0115 483.998 -22.888C483.798 -22.7645 482.809 -22.9471 481.8 -23.2939C479.437 -24.106 478.388 -23.8009 479.464 -22.6147C480.199 -21.8045 480.183 -21.7875 478.781 -21.8851C476.158 -22.0676 476.879 -21.2948 480.73 -19.7965C482.824 -18.9818 484.627 -18.2286 484.736 -18.1227C485.133 -17.7394 483.824 -17.2641 482.872 -17.4458C481.826 -17.6452 479.25 -16.5256 479.25 -15.8719C479.25 -15.6548 478.843 -15.0988 478.345 -14.6363C477.514 -13.8637 477.342 -13.8461 476.23 -14.4197C475.189 -14.9565 474.857 -14.962 473.856 -14.4594C473.217 -14.1379 472.123 -13.738 471.427 -13.5707C470.73 -13.4034 469.923 -13.0704 469.633 -12.8306C468.782 -12.1258 470.283 -10.0743 472.397 -9.0534C473.549 -8.49737 474.382 -7.75235 474.63 -7.05798C474.848 -6.44852 475.309 -5.44761 475.655 -4.83371C476.219 -3.83321 476.214 -3.69073 475.608 -3.45874C475.164 -3.28869 475.033 -2.94789 475.226 -2.46504C475.388 -2.06084 475.572 -1.25541 475.633 -0.675198C475.695 -0.0949821 475.881 0.694893 476.048 1.08008C476.264 1.58154 476.085 1.86414 475.419 2.07527C474.676 2.31026 474.176 2.02716 472.956 0.681179C472.113 -0.247749 470.708 -1.52666 469.834 -2.16085C468.959 -2.79504 467.391 -4.4442 466.35 -5.82565C464.514 -8.26244 464.477 -8.3735 465.086 -9.54902C465.431 -10.2154 465.721 -11.1974 465.729 -11.7311C465.737 -12.2648 466.006 -13.1731 466.325 -13.7495C466.936 -14.8504 466.701 -15.7294 465.395 -17.2241C464.537 -18.2055 463.012 -17.4698 463.396 -16.2605C463.751 -15.1463 462.663 -14.7853 461.412 -15.6019C460.87 -15.9559 459.622 -16.3737 458.638 -16.5303C456.95 -16.7992 456.824 -16.7475 456.387 -15.6022C456.132 -14.9351 456.025 -13.8806 456.149 -13.2588C456.343 -12.29 456.208 -12.0918 455.209 -11.8729C454.529 -11.7239 453.365 -11.9001 452.416 -12.2956C451.374 -12.7301 450.392 -12.8614 449.686 -12.661C449.079 -12.4889 447.028 -12.3326 445.127 -12.3138C442.116 -12.2839 441.537 -12.1528 440.621 -11.2953C440.044 -10.7541 439.35 -9.42485 439.079 -8.34153C438.809 -7.25821 438.313 -5.94917 437.977 -5.43256C437.397 -4.53966 437.453 -4.44942 439.111 -3.60578C440.91 -2.69008 442.872 -2.44885 444.359 -2.96042C445.506 -3.35501 449.006 -0.633369 450.098 1.50316C450.546 2.37832 451.286 3.29383 451.742 3.53762C453.47 4.46005 453.821 10.5123 452.376 14.4691C451.376 17.2087 450.256 18.1045 448.612 17.4809C447.984 17.2427 447.407 17.0477 447.329 17.0477C447.251 17.0477 446.781 17.8267 446.283 18.7789C445.63 20.0291 445.503 20.659 445.825 21.0463C446.441 21.7872 445.985 22.751 444.753 23.3111C444.184 23.5697 443.718 23.9651 443.718 24.1898C443.718 24.4145 445.042 25.5069 446.659 26.6174C448.717 28.0302 449.817 29.1153 450.321 30.231C450.717 31.1079 450.964 31.8951 450.87 31.9803C450.775 32.0654 449.91 32.531 448.948 33.0149L447.199 33.8947L446.146 31.4843C444.968 28.7867 443.958 27.7018 442.178 27.2238C441.281 26.9831 440.969 26.6419 440.969 25.903C440.969 25.2257 440.53 24.6502 439.598 24.1054C438.24 23.3116 438.213 23.3126 436.768 24.2036C435.321 25.0954 435.305 25.0959 434.861 24.268C434.614 23.8087 434.413 23.1422 434.413 22.787C434.413 22.4318 434.057 21.9513 433.622 21.7193C432.976 21.3742 432.568 21.5827 431.38 22.8649C430.582 23.727 429.558 24.642 429.107 24.8984C428.405 25.2962 428.368 25.4644 428.851 26.0454C429.163 26.4199 430.239 27.1839 431.242 27.7432C432.837 28.6327 433.142 28.6832 433.68 28.1466C434.192 27.6364 434.608 27.6178 436.152 28.0357L438.008 28.5384L436.973 29.2282C435.055 30.5075 434.45 31.1791 434.176 32.3337C433.951 33.2813 434.085 33.5663 434.938 33.9539C435.507 34.2126 436.372 35.2447 436.861 36.2474C437.349 37.2501 438.324 38.4098 439.028 38.8246C440.576 39.7369 441.025 40.7062 440.131 41.2054C439.298 41.6707 439.696 42.3662 440.796 42.3662C442.113 42.3662 442.121 43.1501 440.847 47.6749C439.305 53.1545 437.913 54.9829 434.271 56.3121C432.837 56.8355 431.092 57.2954 430.394 57.3339C428.772 57.4235 427.514 58.1088 426.416 59.5008L425.545 60.6057L425.138 59.5396C424.608 58.1487 423.393 57.799 421.648 58.5354C420.049 59.2102 418.995 60.2864 418.57 61.6779C418.189 62.9231 419.537 65.1134 421.767 66.8757C423.598 68.3226 425.653 71.9532 426.135 74.5951C426.555 76.8928 425.811 78.4011 423.817 79.2984C422.908 79.7071 422.058 80.3775 421.927 80.788C421.614 81.7738 419.735 83.0011 419.391 82.4453C419.248 82.2137 419.242 81.6729 419.379 81.2435C419.515 80.8141 419.508 80.1547 419.364 79.7781C419.155 79.2363 418.924 79.1875 418.256 79.5441C417.561 79.9155 417.292 79.8214 416.731 79.0089C415.35 77.0121 411.349 73.8033 410.24 73.8033C409.849 73.8033 409.699 74.2721 409.765 75.2802C409.819 76.0925 409.653 77.6762 409.397 78.7996C408.979 80.6298 409.022 80.9651 409.809 82.0275C410.292 82.6796 410.808 83.6904 410.954 84.2737C411.103 84.8662 412.327 86.2191 413.726 87.3385C416.058 89.2041 416.303 89.5724 417.285 92.6715C417.864 94.5025 418.339 96.1806 418.339 96.4007C418.339 97.1165 417.455 96.8264 415.611 95.5053C413.705 94.1395 412.487 91.9788 411.472 88.1597C411.031 86.5014 410.548 85.7906 409.176 84.7839C407.494 83.5493 407.443 83.4415 407.578 81.3988C407.655 80.2384 407.846 78.5936 408.002 77.7437C408.222 76.5472 408.04 75.6899 407.197 73.9459C406.599 72.7071 405.891 70.8044 405.625 69.7178C405.029 67.2902 404.188 66.8837 402.702 68.3045C402.087 68.892 401.466 69.3726 401.32 69.3726C400.647 69.3726 399.722 67.9429 399.944 67.2454C400.347 65.9788 397.869 61.5636 396.419 60.9643C395.625 60.6365 394.9 59.8413 394.415 58.7673C393.571 56.9012 392.625 56.1872 391.679 56.7034C391.336 56.8907 389.964 57.2673 388.628 57.5405C386.181 58.0412 385.303 58.7806 385.638 60.0587C385.761 60.5293 385.333 60.9839 384.306 61.4725C383.474 61.8685 382.577 62.6651 382.313 63.2426C382.049 63.8201 381.468 64.4082 381.022 64.5494C380.576 64.6907 379.888 65.3364 379.493 65.9845C379.098 66.6326 377.921 67.817 376.878 68.6166C375.451 69.7109 375.005 70.3231 375.076 71.0929C375.491 75.5928 374.855 79.3576 373.302 81.5934C371.787 83.7742 371.68 83.835 370.399 83.2524C369.693 82.9317 369.259 82.3054 369.079 81.3493C368.931 80.5655 368.08 78.3571 367.186 76.4418C361.777 64.853 360.977 62.6418 361.438 60.5491C361.749 59.1349 361.002 57.0012 360.281 57.2428C359.991 57.3397 359.749 57.6874 359.743 58.0156C359.707 59.9417 357.538 60.2374 355.844 58.5472L354.721 57.4272L355.687 57.0708C356.774 56.6698 356.674 55.5882 355.569 55.7865C355.176 55.8569 354.277 55.4297 353.571 54.837C352.865 54.2444 352.124 53.7595 351.925 53.7595C351.726 53.7595 351.442 53.3776 351.293 52.9109C350.903 51.6855 348.659 50.6194 347.535 51.1253C346.523 51.5805 337.341 51.4854 335.804 51.0038C335.251 50.8303 334.227 50.0364 333.529 49.2395C332.268 47.7996 332.248 47.7939 330.357 48.3026C328.564 48.7846 328.304 48.7392 325.889 47.5232C323.803 46.4725 323.177 45.9058 322.533 44.481C321.712 42.663 319.887 41.3467 318.777 41.7715C318.427 41.9053 318.019 42.5699 317.87 43.2485C317.655 44.2232 317.874 44.8564 318.911 46.2634C319.633 47.2429 320.42 48.7704 320.66 49.6578C321.174 51.5637 322.19 52.1307 323.032 50.9818C323.54 50.2884 323.677 50.2643 324.021 50.8077C324.241 51.1547 324.36 51.6285 324.285 51.8606C324.05 52.5901 326.491 53.7904 327.629 53.5052C328.205 53.3611 329.435 52.3832 330.362 51.3321C331.824 49.6759 332.334 49.5641 332.084 50.9549C331.916 51.8909 332.654 52.9881 333.876 53.6183C335.764 54.5918 338.393 56.7603 338.393 57.3434C338.393 57.6122 337.899 58.2925 337.295 58.8551C336.69 59.4178 335.821 60.6083 335.362 61.5007C334.248 63.669 331.018 66.8407 329.924 66.8407C328.66 66.8407 326.779 67.9057 326.03 69.0454C325.676 69.5855 324.743 70.3472 323.958 70.7381C319.938 72.7403 315.097 74.7702 313.735 75.0252C312.279 75.2977 312.161 75.2318 311.389 73.7138C310.942 72.8347 310.435 71.071 310.262 69.7945C310.038 68.1344 309.602 67.0791 308.732 66.0876C308.062 65.3252 307.515 64.5184 307.515 64.2947C307.515 64.0709 306.752 63.1032 305.819 62.1442C304.657 60.9498 303.906 59.6536 303.435 58.0294C303.057 56.7254 302.288 55.0887 301.726 54.3925C297.844 49.5833 296.695 47.8875 296.116 46.1167C295.349 43.7697 294.701 43.3907 294.401 45.1147L294.189 46.3384L292.758 44.536C290.553 41.7587 290.275 43.0211 292.345 46.4117C293.325 48.0161 294.886 50.8479 295.815 52.7046C296.744 54.5613 297.948 56.668 298.491 57.3861C299.05 58.1256 299.478 59.2814 299.478 60.0512C299.478 61.6413 299.954 62.6337 301.822 64.9418C302.573 65.8702 303.315 67.2256 303.471 67.9538C303.671 68.8878 304.487 69.8644 306.243 71.2689C308.91 73.4033 310.639 75.6312 311.068 77.4879C311.229 78.1854 311.839 78.9013 312.614 79.3007C313.793 79.9093 314.208 79.8926 317.936 79.0868C320.16 78.6062 322.516 77.9363 323.171 77.5982L324.363 76.9835L324.646 78.6537C324.903 80.1716 324.626 80.9026 321.615 86.6642C318.377 92.8591 318.226 93.0638 315.006 95.5992C313.194 97.0264 311.298 98.7737 310.792 99.482C310.287 100.19 308.669 102.103 307.198 103.733C302.903 108.49 302.319 112.673 305.168 118.281C305.891 119.705 306.174 120.783 306.002 121.464C305.86 122.031 305.951 123.463 306.205 124.646C306.606 126.509 306.56 127.007 305.867 128.361C304.867 130.316 304.072 131.019 301.276 132.417C300.054 133.027 299.055 133.707 299.055 133.928C299.055 134.148 298.199 135.291 297.152 136.467C296.105 137.642 295.248 138.796 295.248 139.029C295.248 139.263 295.641 140.221 296.12 141.159C297.558 143.971 296.592 146.009 293.145 147.433C291.692 148.033 291.215 149.259 291.574 151.469C291.763 152.627 291.643 153.012 290.985 153.363C290.531 153.605 289.711 154.508 289.161 155.368C287.428 158.085 282.443 162.891 280.179 164.031C278.289 164.982 277.806 165.065 276.418 164.683C275.194 164.346 274.206 164.399 272.154 164.913C268.83 165.746 269.183 165.781 267.896 164.497ZM323.61 29.9071C324.702 29.3438 324.858 29.0337 324.858 27.4269C324.858 26.275 324.611 25.3861 324.195 25.0421C323.831 24.7405 323.241 23.93 322.884 23.241C322.293 22.1013 322.295 22.0117 322.911 22.2476C323.725 22.5591 324.858 22.1845 324.858 21.6039C324.858 21.3744 324.464 20.6354 323.983 19.9615C323.259 18.9466 322.968 18.8112 322.291 19.1728C321.744 19.4651 321.474 19.4678 321.474 19.181C321.474 18.9454 320.719 18.3685 319.796 17.8988C317.754 16.8596 317.027 15.7081 317.664 14.5208C318.146 13.6223 319.868 12.9926 320.604 13.4461C321.595 14.0574 321.887 13.1562 321.069 12.0101C319.085 9.23066 316.323 9.4136 312.897 12.5513C310.686 14.5761 310.495 15.1142 311.745 15.7817C312.21 16.0302 312.591 16.5158 312.591 16.861C312.591 17.2061 313.343 18.3028 314.263 19.298C316.381 21.5902 316.769 22.6376 316.507 25.3503L316.296 27.5343L319.202 29.0218C320.8 29.84 322.165 30.5187 322.235 30.5301C322.305 30.5415 322.923 30.2611 323.61 29.9071ZM311.956 147.778C310.762 147.102 310.592 146.745 310.28 144.254C310.031 142.264 310.135 141.831 311.329 139.896C312.542 137.93 312.629 137.551 312.361 135.415C311.975 132.33 312.633 130.709 314.43 130.316C316.123 129.945 319.786 126.719 320.664 124.825L321.335 123.378L321.801 124.399C322.974 126.968 322.855 128.096 320.814 133.729C319.722 136.743 318.55 140.349 318.211 141.741C317.123 146.198 316.505 147.272 314.723 147.805C312.826 148.372 313.01 148.374 311.956 147.778ZM520.322 140.441C518.973 138.968 518.165 137.704 518.165 137.065C518.165 135.65 518.393 135.773 519.613 137.851C520.197 138.845 521.252 140.209 521.958 140.884C522.663 141.558 523.241 142.264 523.241 142.453C523.241 143.265 522.34 142.644 520.322 140.441ZM331.626 139.842C331.626 139.61 331.816 139.42 332.048 139.42C332.281 139.42 332.471 139.61 332.471 139.842C332.471 140.074 332.281 140.264 332.048 140.264C331.816 140.264 331.626 140.074 331.626 139.842ZM554.377 139.073C554.228 138.832 554.312 138.508 554.563 138.352C555.192 137.965 555.415 138.273 554.995 138.95C554.77 139.313 554.552 139.356 554.377 139.073ZM334.586 138.39C334.586 138.288 334.777 138.087 335.009 137.943C335.242 137.8 335.432 137.884 335.432 138.129C335.432 138.375 335.242 138.576 335.009 138.576C334.777 138.576 334.586 138.493 334.586 138.39ZM543.377 134.108C542.965 133.036 543.488 132.661 544.654 133.191C545.66 133.648 545.682 133.718 544.981 134.23C544 134.946 543.69 134.922 543.377 134.108ZM546.057 132.231C545.23 131.721 545.803 131.314 547.118 131.477C548.148 131.604 548.172 131.65 547.436 132.102C546.966 132.392 546.403 132.444 546.057 132.231ZM526.307 130.682C525.439 128.816 525.743 128.1 526.642 129.896C527.576 131.765 527.593 131.826 527.154 131.821C526.979 131.82 526.598 131.307 526.307 130.682ZM527.927 130.383C527.909 129.938 528.009 129.689 528.149 129.829C528.29 129.969 528.305 130.333 528.183 130.638C528.048 130.975 527.947 130.875 527.927 130.383ZM562.363 126.331C561.976 125.707 562.343 125.387 563.246 125.563C563.907 125.692 563.914 125.76 563.317 126.254C562.841 126.647 562.572 126.669 562.363 126.331ZM312.379 124.229C312.236 123.997 312.32 123.807 312.566 123.807C312.812 123.807 313.014 123.997 313.014 124.229C313.014 124.461 312.93 124.651 312.827 124.651C312.725 124.651 312.523 124.461 312.379 124.229ZM498.073 120.265C495.396 119.423 494.182 118.64 493.129 117.078C491.925 115.294 489.723 113.943 488.598 114.299C488.143 114.443 487.378 115.226 486.897 116.039C486.079 117.423 485.922 117.499 484.434 117.235C483.56 117.08 482.34 116.483 481.722 115.909C480.936 115.178 480.334 114.947 479.721 115.141C479.238 115.294 478.539 115.249 478.168 115.042C477.586 114.717 477.643 114.565 478.573 113.957C479.651 113.253 479.652 113.243 478.929 111.731C478.349 110.517 477.548 109.884 474.929 108.571C473.128 107.667 471.092 106.928 470.405 106.928C468.832 106.928 468.182 105.482 469.367 104.617C470.072 104.103 469.969 103.976 468.13 103.084C466.177 102.138 466.15 102.098 467.082 101.581C467.609 101.289 468.458 101.044 468.968 101.036C469.959 101.02 471.213 102.446 471.213 103.589C471.213 103.971 471.624 104.804 472.127 105.442C473.028 106.584 473.051 106.589 473.713 105.764C474.083 105.304 475.263 104.425 476.335 103.812L478.285 102.698L480.988 103.914C482.475 104.583 484.585 105.452 485.678 105.845C486.77 106.237 488.956 107.405 490.535 108.439C493.549 110.415 494.859 112.08 494.108 112.983C493.495 113.719 495.9 117.071 498.39 118.952C501.126 121.02 501.08 121.211 498.073 120.265ZM516.481 120.231C516.148 119.83 516.116 119.587 516.396 119.587C516.907 119.587 517.503 120.388 517.21 120.681C517.104 120.787 516.776 120.584 516.481 120.231ZM445.41 118.513C444.797 118.175 444.619 117.926 444.987 117.921C445.743 117.911 446.951 118.613 446.666 118.897C446.556 119.007 445.991 118.834 445.41 118.513ZM452.561 117.955C453.761 116.275 455.638 115.556 457.374 116.112C458.639 116.517 458.658 116.551 457.654 116.591C457.06 116.614 455.673 117.203 454.573 117.9C452.061 119.488 451.455 119.505 452.561 117.955ZM513.935 118.533C513.363 117.845 513.5 117.76 514.535 118.156C514.903 118.297 515.204 118.581 515.204 118.789C515.204 119.372 514.519 119.234 513.935 118.533ZM515.916 118.16C515.757 117.747 515.639 117.092 515.654 116.705C515.672 116.238 515.818 116.345 516.089 117.019C516.313 117.58 516.431 118.235 516.351 118.475C516.271 118.715 516.075 118.574 515.916 118.16ZM548.62 118.557C548.62 118.455 548.811 118.254 549.043 118.111C549.276 117.967 549.466 118.051 549.466 118.297C549.466 118.542 549.276 118.744 549.043 118.744C548.811 118.744 548.62 118.66 548.62 118.557ZM440.438 116.785C440.145 116.662 440.014 116.388 440.145 116.176C440.468 115.654 443.179 115.683 443.507 116.212C443.651 116.444 443.519 116.636 443.215 116.639C442.91 116.643 442.28 116.727 441.815 116.827C441.35 116.927 440.73 116.908 440.438 116.785ZM446.717 116.468C445.949 115.544 446.834 115.263 448.827 115.799C450.835 116.338 450.828 116.422 448.747 116.797C447.667 116.991 447.073 116.895 446.717 116.468ZM510.226 116.212C509.934 115.744 509.882 115.368 510.11 115.368C510.336 115.368 510.725 115.748 510.974 116.212C511.223 116.676 511.276 117.056 511.091 117.056C510.906 117.056 510.517 116.676 510.226 116.212ZM512.875 115.787C511.744 114.541 512.35 114.344 513.514 115.58C514.059 116.16 514.311 116.634 514.074 116.634C513.837 116.634 513.298 116.253 512.875 115.787ZM433.567 115.714C432.054 115.505 429.922 115.041 428.829 114.683C427.735 114.325 426.446 114.157 425.965 114.309C424.996 114.616 420.877 113.407 420.877 112.817C420.877 111.468 424.669 111.366 426.684 112.66C427.436 113.143 428.029 113.175 429.62 112.82C431.382 112.426 431.749 112.474 432.784 113.238C433.428 113.713 434.147 114.102 434.381 114.102C435.217 114.102 437.756 115.513 437.542 115.859C437.422 116.053 437.097 116.185 436.82 116.153C436.543 116.121 435.079 115.923 433.567 115.714ZM509.494 113.68C509.073 113.216 508.918 112.836 509.151 112.836C509.384 112.836 509.918 113.216 510.34 113.68C510.761 114.144 510.915 114.524 510.682 114.524C510.45 114.524 509.915 114.144 509.494 113.68ZM506.826 113.145C506.586 112.857 506.267 112.052 506.117 111.357C505.876 110.237 505.903 110.189 506.354 110.937C506.634 111.401 507.134 112.094 507.465 112.478C507.817 112.884 507.9 113.278 507.666 113.422C507.444 113.559 507.066 113.434 506.826 113.145ZM497.868 111.804L496.817 111.223L498.446 110.918C499.342 110.751 500.719 110.05 501.506 109.36C502.365 108.608 502.935 108.335 502.931 108.678C502.921 109.536 502.401 110.197 500.82 111.361C499.168 112.576 499.246 112.565 497.868 111.804ZM418.521 110.161C416.967 109.277 414.164 105.86 413.251 103.737C412.759 102.591 411.631 100.704 410.745 99.5437C409.858 98.3833 408.841 96.8642 408.483 96.1679C408.126 95.4716 407.041 94.1424 406.072 93.2141C404.029 91.2567 402.773 89.1999 403.629 89.2146C404.739 89.2337 407.596 90.8185 408.822 92.0947C412.202 95.6154 412.895 96.242 414.491 97.2229C416.031 98.1695 416.76 99.1547 416.833 100.388C416.847 100.62 417.285 101.284 417.807 101.865C418.328 102.445 419.312 103.536 419.993 104.29C420.675 105.043 421.355 106.219 421.506 106.902C421.998 109.139 420.192 111.11 418.521 110.161ZM333.317 109.882C333.317 109.65 333.508 109.46 333.74 109.46C333.973 109.46 334.163 109.65 334.163 109.882C334.163 110.114 333.973 110.304 333.74 110.304C333.508 110.304 333.317 110.114 333.317 109.882ZM445.197 109.878C445.051 109.644 445.05 109.083 445.192 108.632C445.336 108.18 445.161 107.366 444.803 106.821C444.214 105.924 444.22 105.736 444.863 104.82C445.253 104.264 445.714 102.771 445.887 101.502C446.1 99.9365 446.52 98.8761 447.195 98.2028C448.118 97.2819 448.35 97.241 450.425 97.6336C452.207 97.9707 452.908 97.9291 453.878 97.4287C455.503 96.5908 455.621 96.6283 455.082 97.8092C454.396 99.3105 453.026 99.7903 451.582 99.0352C449.002 97.6869 445.58 99.6907 447.385 101.492C448.049 102.154 448.416 102.214 449.646 101.863C451.753 101.26 452.584 101.37 451.275 102.08C449.794 102.883 449.513 103.774 450.276 105.246C450.623 105.916 450.908 106.955 450.908 107.555C450.908 108.515 450.806 108.592 450.061 108.194C449.595 107.945 448.923 107.047 448.568 106.199C447.927 104.667 447.915 104.662 447.095 105.481C446.375 106.199 446.326 106.518 446.72 107.941C447.076 109.228 447.052 109.653 446.608 109.934C445.861 110.407 445.514 110.393 445.195 109.878H445.197ZM503.231 107.628C502.832 107.021 501.919 106.221 501.202 105.851C500.485 105.481 499.993 105.083 500.109 104.967C500.767 104.311 504.437 107.291 504.125 108.227C504.029 108.515 503.645 108.257 503.231 107.628ZM436.806 106.223C436.168 105.89 435.308 105.724 434.896 105.854C433.843 106.187 429.663 105.339 429.249 104.708C428.919 104.206 427.951 101.114 427.432 98.9107C427.29 98.3048 427.432 97.5187 427.765 97.0639C428.249 96.4041 428.5 96.3539 429.266 96.7632C430.075 97.1953 430.247 97.1214 430.691 96.1499C430.968 95.5423 431.892 94.6907 432.743 94.2574C433.645 93.7985 434.512 92.9394 434.819 92.1997C435.173 91.347 435.819 90.774 436.787 90.4553C437.58 90.1943 438.725 89.3315 439.332 88.5381C439.938 87.7446 440.66 87.0954 440.936 87.0954C441.212 87.0954 442.046 87.7223 442.791 88.4884L444.144 89.8814L443.059 91.3368C441.827 92.9901 441.892 94.4121 443.288 96.3685L444.133 97.5529L443.08 98.2416C442.5 98.6203 442.027 99.1632 442.028 99.4479C442.032 100.414 439.321 105.985 438.642 106.409C438.169 106.703 437.618 106.648 436.806 106.223ZM461.378 106.215C460.503 105.987 460.381 105.24 461.22 105.24C461.54 105.24 462.435 105.367 463.209 105.521C464.401 105.759 464.49 105.852 463.791 106.125C462.872 106.483 462.464 106.498 461.378 106.215ZM528.74 100.835C528.74 100.732 528.93 100.531 529.163 100.388C529.395 100.244 529.586 100.328 529.586 100.574C529.586 100.82 529.395 101.021 529.163 101.021C528.93 101.021 528.74 100.937 528.74 100.835ZM459.896 99.6901C459.558 99.3527 459.538 98.9617 459.831 98.4154C460.064 97.982 460.141 97.4454 460.004 97.2229C459.622 96.6071 460.578 95.113 461.353 95.113C461.975 95.113 461.972 95.1854 461.326 95.8979C460.767 96.514 460.705 96.9216 461.037 97.7931C461.708 99.5548 460.978 100.769 459.896 99.6901ZM247.45 98.3027C247.45 98.2003 247.64 97.9993 247.873 97.8558C248.106 97.7124 248.296 97.7961 248.296 98.0419C248.296 98.2877 248.106 98.4888 247.873 98.4888C247.64 98.4888 247.45 98.405 247.45 98.3027ZM540.795 97.2229C540.651 96.9908 540.735 96.8009 540.982 96.8009C541.228 96.8009 541.429 96.9908 541.429 97.2229C541.429 97.455 541.346 97.6448 541.243 97.6448C541.14 97.6448 540.939 97.455 540.795 97.2229ZM249.988 93.239C249.988 93.1366 250.178 92.9355 250.411 92.7921C250.644 92.6487 250.834 92.7324 250.834 92.9782C250.834 93.224 250.644 93.4251 250.411 93.4251C250.178 93.4251 249.988 93.3413 249.988 93.239ZM453.452 86.8945C452.645 85.017 452.537 84.9326 451.296 85.2046C450.058 85.4758 450.015 85.4427 450.478 84.5782C450.862 83.8624 451.218 83.7203 452.128 83.9197C453.006 84.1119 453.566 83.9176 454.425 83.123C455.051 82.545 455.566 81.7307 455.571 81.3135C455.585 80.2484 457.155 83.8202 457.514 85.7298C457.786 87.1798 457.752 87.2587 457.091 86.7124C456.11 85.9016 455.165 86.7428 455.97 87.7105C456.292 88.0966 456.333 88.3614 456.072 88.3614C455.829 88.3614 455.332 88.476 454.966 88.6161C454.475 88.804 454.078 88.353 453.452 86.8945ZM376.328 87.6401C375.855 86.8738 375.586 83.4352 375.928 82.5227C376.29 81.5551 376.317 81.5668 377.395 83.1557C378.686 85.0599 379.1 86.281 378.674 86.9331C378.266 87.5572 376.589 88.0627 376.328 87.6401ZM470.79 85.4574C470.79 85.2253 470.98 84.918 471.213 84.7746C471.445 84.6312 471.636 84.7037 471.636 84.9358C471.636 85.1679 471.445 85.4751 471.213 85.6185C470.98 85.762 470.79 85.6895 470.79 85.4574ZM537.2 85.4076C537.2 85.1755 537.283 84.9856 537.386 84.9856C537.489 84.9856 537.69 85.1755 537.834 85.4076C537.978 85.6396 537.894 85.8295 537.648 85.8295C537.401 85.8295 537.2 85.6396 537.2 85.4076ZM441.18 82.9696C441.18 82.7892 442.028 81.6974 443.065 80.5433C444.584 78.8522 444.953 78.6133 444.968 79.312C444.979 79.7888 444.343 80.8806 443.556 81.7383C442.22 83.1926 441.18 83.7317 441.18 82.9696ZM450.342 81.8437C450.188 81.4431 450.219 80.8348 450.412 80.4919C450.71 79.9606 450.834 79.9555 451.251 80.4573C451.625 80.9067 451.608 81.2267 451.182 81.8091C450.657 82.5244 450.605 82.5266 450.342 81.8437ZM126.419 80.1995C126.678 79.8881 126.765 79.5083 126.612 79.3556C126.459 79.2029 126.728 79.0779 127.21 79.0779C127.879 79.0779 128.035 79.2784 127.866 79.9219C127.738 80.412 127.289 80.7658 126.796 80.7658C126.134 80.7658 126.051 80.6413 126.419 80.1995ZM453.18 80.0878C453.023 79.6484 452.817 79.1465 452.723 78.9724C452.628 78.7984 452.731 78.656 452.95 78.656C453.372 78.656 453.966 80.3887 453.652 80.7023C453.55 80.8037 453.338 80.5271 453.18 80.0878ZM448.894 78.9868C448.3 78.2727 448.879 77.2562 449.767 77.454C450.324 77.5781 450.345 77.7536 449.898 78.579C449.467 79.3755 449.28 79.4512 448.894 78.9868ZM453.895 77.5366C453.41 76.921 453.083 76.3468 453.169 76.2607C453.513 75.9178 454.702 76.6734 455.335 77.6365C456.308 79.1175 455.074 79.0319 453.895 77.5366ZM446.941 75.9031C446.565 75.5273 446.256 75.0014 446.256 74.7343C446.256 74.4672 446.674 74.6654 447.185 75.1747C447.695 75.684 448.003 76.2099 447.869 76.3435C447.736 76.477 447.318 76.2788 446.941 75.9031ZM114.913 75.8428C114.758 75.6881 114.631 75.3653 114.631 75.1254C114.631 74.861 114.828 74.8859 115.131 75.1887C115.407 75.4634 115.533 75.7862 115.413 75.9061C115.293 76.026 115.068 75.9975 114.913 75.8428ZM112.516 75.2802C112.516 75.0481 112.6 74.8582 112.702 74.8582C112.805 74.8582 113.006 75.0481 113.15 75.2802C113.294 75.5122 113.21 75.7021 112.964 75.7021C112.717 75.7021 112.516 75.5122 112.516 75.2802ZM132.396 74.4362C132.396 74.2041 132.48 74.0142 132.583 74.0142C132.685 74.0142 132.887 74.2041 133.031 74.4362C133.175 74.6683 133.091 74.8582 132.844 74.8582C132.598 74.8582 132.396 74.6683 132.396 74.4362ZM451.196 74.3719C450.772 74.1333 449.968 74.0525 449.409 74.1924C448.59 74.3974 448.026 74.0687 446.492 72.495C444.327 70.2719 443.906 69.3346 444.541 68.1503C444.786 67.6926 444.987 66.7472 444.987 66.0494C444.987 63.7589 446.525 63.8514 447.653 66.2098C448.277 67.5164 448.281 67.7969 447.694 69.1984C447.062 70.7071 447.075 70.7744 448.202 71.9481C449.016 72.796 449.627 73.0838 450.27 72.9227C450.814 72.7865 451.401 72.9553 451.721 73.34C452.482 74.2556 452.15 74.909 451.196 74.3719ZM129.858 71.7183C129.858 71.6159 130.049 71.4148 130.281 71.2714C130.514 71.128 130.704 71.2117 130.704 71.4575C130.704 71.7033 130.514 71.9044 130.281 71.9044C130.049 71.9044 129.858 71.8206 129.858 71.7183ZM196.268 70.2165C196.268 69.9844 196.458 69.7945 196.691 69.7945C196.924 69.7945 197.114 69.9844 197.114 70.2165C197.114 70.4486 196.924 70.6385 196.691 70.6385C196.458 70.6385 196.268 70.4486 196.268 70.2165ZM128.589 68.5784C128.589 68.3463 128.78 68.039 129.012 67.8956C129.245 67.7522 129.435 67.8247 129.435 68.0568C129.435 68.2889 129.245 68.5961 129.012 68.7396C128.78 68.883 128.589 68.8105 128.589 68.5784ZM124.997 66.8455C124.849 66.6063 125.019 66.5356 125.395 66.6797C126.128 66.9602 126.262 67.2626 125.653 67.2626C125.435 67.2626 125.139 67.0749 124.997 66.8455ZM192.25 66.8407C192.106 66.6086 192.19 66.4187 192.436 66.4187C192.683 66.4187 192.884 66.6086 192.884 66.8407C192.884 67.0728 192.8 67.2626 192.698 67.2626C192.595 67.2626 192.393 67.0728 192.25 66.8407ZM126.686 65.9967C126.542 65.7646 126.626 65.5748 126.872 65.5748C127.119 65.5748 127.32 65.7646 127.32 65.9967C127.32 66.2288 127.236 66.4187 127.134 66.4187C127.031 66.4187 126.83 66.2288 126.686 65.9967ZM128.589 65.9967C128.589 65.7646 128.673 65.5748 128.776 65.5748C128.879 65.5748 129.08 65.7646 129.224 65.9967C129.368 66.2288 129.284 66.4187 129.037 66.4187C128.791 66.4187 128.589 66.2288 128.589 65.9967ZM99.5087 64.8733C99.2179 64.7562 98.98 64.4864 98.98 64.2737C98.98 63.6653 100.847 63.8219 101.754 64.5064C102.534 65.095 102.512 65.1249 101.306 65.106C100.608 65.0951 99.7995 64.9904 99.5087 64.8733ZM110.212 64.6339C109.833 64.4221 108.995 64.3645 108.35 64.5058C107.705 64.6471 106.713 64.5774 106.145 64.351C105.233 63.9869 105.313 63.9439 106.844 63.9796C109.092 64.032 109.693 63.6667 109.118 62.5953C108.71 61.8349 108.833 61.777 110.851 61.777C112.803 61.777 115.619 62.6701 116.096 63.4406C116.413 63.9528 110.97 65.0568 110.212 64.6339ZM118.326 64.9007C117.825 64.4007 118.448 63.8869 119.555 63.8869C120.22 63.8869 120.557 64.0858 120.449 64.4143C120.254 65.0051 118.771 65.3448 118.326 64.9007ZM424.351 64.2297C423.231 63.1124 424.339 61.777 426.387 61.777C427.295 61.777 427.295 61.7843 426.516 63.1145C425.609 64.6651 425.067 64.9441 424.351 64.2297ZM121.822 64.143C121.822 64.0518 122.107 63.8678 122.456 63.7342C122.805 63.6007 123.091 63.6753 123.091 63.9001C123.091 64.1249 122.805 64.3088 122.456 64.3088C122.107 64.3088 121.822 64.2342 121.822 64.143ZM103.536 61.1182C103.406 60.9879 102.513 60.8705 101.552 60.8573C100.227 60.8391 99.9087 60.709 100.234 60.3182C100.548 59.9404 100.097 59.4375 98.5418 58.4323C95.4928 56.4614 93.7904 56.0762 91.742 56.8938C89.8213 57.6605 89.6741 57.6823 89.6741 57.1993C89.6741 56.3161 93.0406 55.3448 95.4647 55.5286C97.783 55.7044 99.081 56.1966 103.633 58.626C107.374 60.6228 107.378 60.6266 106.171 60.9701C104.799 61.3602 103.833 61.4145 103.536 61.1182ZM106.594 57.5572C107.414 57.0285 107.863 57.0285 107.863 57.5572C107.863 57.7893 107.435 57.9763 106.911 57.9727C106.141 57.9675 106.081 57.888 106.594 57.5572ZM443.464 56.8089C443.208 56.6403 442.768 56.0654 442.486 55.5314C442.061 54.7265 442.105 54.3356 442.744 53.2444C443.731 51.5592 444.397 51.3489 444.717 52.6217C445.054 53.9606 444.08 57.2147 443.464 56.8089ZM109.371 56.2465C109.653 55.7907 111.247 55.7391 111.246 56.1858C111.246 56.3599 110.772 56.5296 110.192 56.563C109.612 56.5964 109.243 56.4539 109.371 56.2465ZM101.007 52.1796C100.33 51.4051 100.428 50.3837 101.18 50.3837C101.42 50.3837 101.519 50.7543 101.401 51.2074C101.282 51.6604 101.402 52.1091 101.669 52.2045C101.935 52.2999 102.04 52.5001 101.903 52.6494C101.766 52.7986 101.362 52.5872 101.007 52.1796ZM103.464 48.8646C103.313 48.4732 103.285 48.0581 103.401 47.942C103.518 47.826 103.736 48.0512 103.887 48.4426C104.037 48.8339 104.065 49.2491 103.949 49.3651C103.833 49.4812 103.614 49.2559 103.464 48.8646ZM100.813 48.4848C100.813 48.1367 101.175 47.8518 101.619 47.8518C102.335 47.8518 102.354 47.9221 101.79 48.4848C101.441 48.8329 101.078 49.1177 100.984 49.1177C100.89 49.1177 100.813 48.8329 100.813 48.4848ZM455.562 39.2337C455.562 38.9034 455.1 38.0853 454.535 37.4158C453.195 35.8263 453.67 34.7655 455.257 35.8032C456.398 36.5492 456.995 38.0734 456.574 39.1678C456.255 39.9978 455.562 40.0429 455.562 39.2337ZM127.32 36.6944C127.32 36.592 127.511 36.391 127.743 36.2475C127.976 36.1041 128.166 36.1878 128.166 36.4336C128.166 36.6794 127.976 36.8805 127.743 36.8805C127.511 36.8805 127.32 36.7967 127.32 36.6944ZM457.919 36.1758C457.645 35.4628 458.293 34.7889 459.263 34.7771C459.935 34.7688 459.948 35.7122 459.284 36.3741C458.595 37.0622 458.241 37.0107 457.919 36.1758ZM461.784 34.6355C460.963 33.3851 459.803 33.2134 457.147 33.9492C456.067 34.2484 455.323 34.2518 454.821 33.9597C454.414 33.7236 454.305 33.5246 454.578 33.5175C454.851 33.5105 455.648 33.0233 456.349 32.4349C457.253 31.6759 457.915 31.4384 458.63 31.6173C459.387 31.8068 460.204 31.4442 461.923 30.1557C465.269 27.6474 465.572 26.8564 464.211 24.1761C462.904 21.6036 463.268 20.7754 465.204 21.9164C466.614 22.7469 467.941 25.1257 467.556 26.1286C467.417 26.4896 467.624 27.6224 468.016 28.646C468.57 30.0945 468.623 30.7036 468.253 31.3931C467.709 32.4059 466.198 33.0827 464.479 33.0827C463.515 33.0827 463.227 33.3293 462.913 34.4244L462.527 35.7662L461.784 34.6355ZM290.426 33.1951C289.921 32.6915 290.19 32.2388 290.993 32.2388C291.445 32.2388 291.932 32.0489 292.076 31.8168C292.469 31.1821 293.139 31.3096 292.885 31.9706C292.624 32.649 290.793 33.561 290.426 33.1951ZM276.002 32.465L274.733 31.8853L276.425 31.8568C278.532 31.8213 280.085 32.2156 279.779 32.7087C279.439 33.258 277.458 33.1302 276.002 32.465ZM258.915 28.2556C257.222 27.391 257.142 27.2831 258.026 27.0526C259.084 26.7764 261.427 27.12 261.379 27.5443C261.363 27.6894 261.22 28.1224 261.062 28.5067C260.802 29.1384 260.596 29.1143 258.915 28.2556ZM250.436 23.6903C250.07 22.6427 250.099 22.2417 250.575 21.7671C251.435 20.9092 252.103 21.5122 252.103 23.1461C252.103 25.0759 251.042 25.4225 250.436 23.6903ZM240.518 24.0409C240.818 23.2608 242.105 23.1289 241.846 23.9048C241.749 24.1949 241.353 24.4935 240.966 24.5684C240.475 24.6633 240.339 24.5037 240.518 24.0409ZM461.532 19.2245C460.757 18.1396 460.736 17.9397 461.308 17.1253C461.87 16.3254 461.868 16.0856 461.289 14.9695C460.337 13.1338 460.471 13.0227 462.121 14.2783C462.937 14.899 464.547 15.6861 465.698 16.0273C468.078 16.7323 468.653 17.2859 467.412 17.6787C466.943 17.8271 466.56 18.2242 466.56 18.5611C466.56 19.02 466.268 19.0992 465.397 18.8767C463.165 18.307 462.531 18.4462 462.674 19.474C462.849 20.7335 462.564 20.6712 461.532 19.2245ZM251.116 19.7202C250.625 19.2308 250.81 18.413 251.469 18.161C251.927 17.9855 252.103 18.2072 252.103 18.9598C252.103 19.9727 251.689 20.2917 251.116 19.7202ZM458.848 10.8236C458.489 10.4174 457.624 8.94541 456.925 7.55245C456.227 6.15949 454.381 3.60148 452.823 1.86798C451.082 -0.068737 450.198 -1.35286 450.528 -1.4629C450.825 -1.56139 451.46 -1.12015 451.94 -0.482361C453.104 1.06363 454.537 2.40606 456.798 4.06846C458.672 5.4464 459.599 6.72184 458.39 6.25885C456.995 5.72498 457.343 6.99221 459.148 9.01941C460.2 10.2012 461.061 11.2568 461.061 11.3651C461.061 11.8783 459.426 11.4783 458.848 10.8236ZM149.316 10.0851C149.316 9.73698 149.5 9.45214 149.726 9.45214C149.951 9.45214 150.026 9.73698 149.892 10.0851C149.758 10.4332 149.574 10.7181 149.482 10.7181C149.391 10.7181 149.316 10.4332 149.316 10.0851ZM147.106 8.72339L145.53 8.55848L148.495 5.62951C150.126 4.01859 151.674 2.70055 151.934 2.70055C152.209 2.70055 152.127 3.01057 151.738 3.43927C150.857 4.40998 151.458 5.50051 153.067 5.85311C153.77 6.00703 154.47 6.54413 154.74 7.13661C155.175 8.08754 155.101 8.18441 153.636 8.59044C152.098 9.0164 150.263 9.05378 147.106 8.72339ZM44.0358 5.69606C42.5705 4.33061 42.4071 3.75536 43.3787 3.38341C44.2488 3.05032 45.855 4.13623 46.4638 5.46916C47.1026 6.8678 47.0912 6.9203 46.1507 6.9203C45.71 6.9203 44.7583 6.36939 44.0358 5.69606ZM230.319 3.55213C230.784 3.32319 231.7 2.94334 232.354 2.70802C233.794 2.18951 233.555 1.63727 231.733 1.27377C230.484 1.02441 230.44 0.960972 231.155 0.439323C231.58 0.128811 231.805 -0.325436 231.653 -0.570122C231.498 -0.820091 231.933 -1.20828 232.646 -1.45614C233.344 -1.69876 233.914 -2.08467 233.914 -2.31372C233.914 -3.28839 233.033 -4.92796 232.543 -4.86421C231.414 -4.71727 230.89 -4.9159 231.073 -5.42246C231.177 -5.71257 231.091 -6.28223 230.881 -6.68839C230.337 -7.74448 231.588 -9.92854 232.751 -9.95222C232.926 -9.95544 233.021 -9.72584 232.963 -9.44124C232.904 -9.15665 233.304 -8.85619 233.85 -8.77356L234.842 -8.62334L233.894 -7.61602L232.945 -6.60872L234.015 -6.20313C235.162 -5.76781 236.269 -4.34955 237.395 -1.86921C237.935 -0.680847 238.29 -0.370201 238.92 -0.534554C240.212 -0.871777 240.366 0.00209427 239.153 0.794792C238.331 1.33184 238.175 1.63443 238.535 1.99343C238.895 2.35243 238.186 2.59329 235.725 2.94753C233.915 3.20816 231.768 3.54446 230.953 3.69489C229.821 3.90411 229.672 3.87056 230.319 3.55213ZM223.186 1.22116C223.041 0.844986 223.206 -0.00964737 223.553 -0.678032C223.95 -1.44493 224.027 -1.98914 223.761 -2.15311C223.028 -2.60506 223.303 -3.18181 224.38 -3.45144C224.952 -3.59468 225.641 -3.97807 225.912 -4.30343C226.476 -4.98079 229.081 -5.10545 229.473 -4.47375C229.616 -4.24207 229.437 -3.63016 229.074 -3.11394C228.712 -2.59772 228.415 -1.67045 228.415 -1.05335C228.415 -0.112301 228.126 0.169071 226.618 0.691177C225.629 1.03356 224.512 1.44675 224.134 1.60939C223.692 1.80011 223.355 1.66225 223.186 1.22116ZM230.953 -2.9712C230.953 -3.07355 231.144 -3.27464 231.376 -3.41808C231.609 -3.56152 231.799 -3.47778 231.799 -3.232C231.799 -2.98622 231.609 -2.78511 231.376 -2.78511C231.144 -2.78511 230.953 -2.86885 230.953 -2.9712ZM43.2296 -5.00438C42.8152 -5.50246 42.8416 -5.73457 43.3615 -6.16506C44.2212 -6.87677 44.6475 -6.39397 44.1472 -5.2754C43.8022 -4.50402 43.6767 -4.46695 43.2296 -5.00438ZM42.5681 -8.17793C42.4252 -8.40849 42.5918 -8.83178 42.9382 -9.11859C43.6259 -9.688 43.7696 -9.24145 43.1914 -8.33124C42.9705 -7.98347 42.7258 -7.92328 42.5681 -8.17793ZM15.2276 -8.44707C15.2276 -8.74389 16.5102 -9.26309 18.3297 -9.70282C19.0195 -9.86952 19.4273 -9.82932 19.2902 -9.60813C19.1593 -9.39672 18.5247 -9.11757 17.8801 -8.9878C17.2355 -8.85804 16.3749 -8.6233 15.9678 -8.46618C15.5607 -8.30905 15.2276 -8.30046 15.2276 -8.44707ZM266.591 -13.192C265.81 -13.5061 265.948 -13.9903 266.837 -14.0571C267.264 -14.0892 267.613 -13.8447 267.613 -13.5139C267.613 -12.8857 267.466 -12.8395 266.591 -13.192ZM173.638 -15.3487C170.961 -16.8049 169.682 -19.0422 170.457 -20.9102C170.824 -21.7942 170.836 -22.3501 170.499 -22.9775C169.799 -24.2832 170.712 -25.8132 173.05 -27.2478C174.16 -27.9292 175.268 -28.8597 175.513 -29.3155C176.19 -30.5785 175.587 -32.7429 174.407 -33.2788C173.811 -33.5501 173.486 -33.979 173.618 -34.3218C173.918 -35.1024 172.51 -37.7686 171.107 -39.0749C170.075 -40.0364 169.631 -40.1321 166.096 -40.1552C161.282 -40.1866 160.386 -40.4536 160.465 -41.8315C160.498 -42.4038 160.625 -42.8722 160.748 -42.8724C160.87 -42.8726 162.583 -43.0706 164.555 -43.3125C167.072 -43.6214 169.329 -44.2584 172.134 -45.452C176.478 -47.2999 176.809 -47.336 187.174 -47.093C190.447 -47.0163 193.458 -47.2579 197.326 -47.9077C200.928 -48.5129 203.578 -48.741 205.009 -48.5691C206.225 -48.423 207.986 -48.5193 208.98 -48.7863C211.287 -49.406 217.28 -48.6606 219.638 -47.4609C221.031 -46.7516 221.769 -46.658 224.12 -46.8915C226.661 -47.1438 226.853 -47.1106 226.089 -46.5512C225.624 -46.2103 224.196 -45.7939 222.917 -45.6258C220.14 -45.2611 217.589 -43.2869 218.265 -42.0264C218.557 -41.4826 218.347 -41.0185 217.404 -40.1172C216.719 -39.4622 216.058 -38.6111 215.936 -38.2258C215.641 -37.3001 211.902 -35.5773 210.047 -35.5131C207.988 -35.4418 207.773 -35.005 209.365 -34.1299C210.118 -33.7165 211.216 -33.0121 211.806 -32.5646L212.878 -31.7509L211.909 -31.3931C211.165 -31.1187 210.562 -31.2956 209.325 -32.1508C207.647 -33.3112 205.841 -33.3171 206.804 -32.1589C207.18 -31.7072 207.089 -31.5318 206.386 -31.3483C204.814 -30.9383 205.926 -30.1274 207.66 -30.4196C208.763 -30.6055 209.384 -30.5075 209.729 -30.0928C210.139 -29.5993 209.604 -29.3708 206.523 -28.7248C204.489 -28.2983 201.778 -27.9337 200.498 -27.9146C198.121 -27.8792 196.408 -27.1985 193.888 -25.2878C193.066 -24.6648 191.32 -24.0474 189.277 -23.6573C185.006 -22.8422 183.563 -21.8994 180.989 -18.244C178.923 -15.3079 177.676 -14.2136 176.387 -14.2032C176.039 -14.2004 174.801 -14.7159 173.638 -15.3487ZM143.646 -18.171C142.738 -18.7278 141.624 -19.7662 141.172 -20.4786C140.289 -21.8695 139.476 -22.0462 137.092 -21.3644C136.286 -21.1336 135.38 -21.1113 135.018 -21.3134C133.766 -22.0127 136.028 -22.7005 138.548 -22.3864C140.464 -22.1475 140.89 -22.2156 141.114 -22.7965C141.563 -23.9638 143.618 -24.8003 144.76 -24.281C145.464 -23.9612 146.103 -23.9702 147.002 -24.3122C148.21 -24.7724 148.227 -24.814 147.437 -25.3923C146.986 -25.7231 146.47 -25.9937 146.292 -25.9937C146.114 -25.9937 145.47 -26.8414 144.861 -27.8775C144.252 -28.9136 143.112 -30.1576 142.326 -30.6419C140.991 -31.4651 140.814 -31.4795 139.62 -30.8635C138.576 -30.3249 137.973 -30.2872 136.321 -30.6572C135.209 -30.9063 133.657 -30.9901 132.872 -30.8436C131.509 -30.5894 129.012 -31.2546 129.012 -31.8719C129.012 -33.0058 132.595 -35.5507 134.723 -35.9284L136.415 -36.2287L135.205 -34.9433C133.537 -33.1701 134.164 -32.354 135.976 -33.9409C136.745 -34.614 138.073 -35.2956 138.928 -35.4556C140.234 -35.7001 140.793 -35.5407 142.434 -34.4569C144.616 -33.0149 144.784 -32.9762 146.015 -33.6333C146.756 -34.029 147.03 -33.9203 147.835 -32.9134C148.392 -32.217 149.635 -31.4587 150.847 -31.076C152.779 -30.4662 152.911 -30.3335 152.911 -29.0042C152.911 -28.0074 153.2 -27.3784 153.878 -26.8943C156.717 -24.8691 156.655 -24.9527 156.041 -23.9716C155.198 -22.6263 154.533 -22.5288 152.669 -23.4774C151.373 -24.1373 150.806 -24.2278 150.153 -23.8793C149.355 -23.4528 149.346 -23.3617 149.989 -22.1213C150.517 -21.1033 150.565 -20.5892 150.206 -19.804C149.765 -18.8365 149.694 -18.8216 148.494 -19.4406C146.136 -20.6574 144.547 -19.8567 146.748 -18.56C147.437 -18.1537 147.905 -17.6663 147.788 -17.4768C147.378 -16.8155 145.285 -17.1663 143.646 -18.171ZM230.53 -17.6246C230.53 -17.818 230.816 -17.9762 231.165 -17.9762C231.514 -17.9762 231.799 -17.818 231.799 -17.6246C231.799 -17.4311 231.514 -17.2729 231.165 -17.2729C230.816 -17.2729 230.53 -17.4311 230.53 -17.6246ZM127.697 -19.8939C126.863 -20.3313 126.216 -20.3687 125.048 -20.0471C123.062 -19.5001 122.368 -19.9004 123.375 -21.011C124.665 -22.4328 125.54 -22.7125 127.096 -22.2003C128.847 -21.6238 129.624 -20.7669 129.152 -19.9336C128.85 -19.4024 128.645 -19.3968 127.697 -19.8939ZM211.707 -20.0861C211.009 -20.5439 210.121 -20.8183 209.733 -20.6959C209.199 -20.5273 209.08 -20.6736 209.244 -21.2991C209.496 -22.2592 213.213 -23.6448 214.469 -23.247C214.907 -23.1083 216.027 -23.2224 216.957 -23.5004C218.417 -23.9369 218.805 -23.9039 219.792 -23.2585L220.935 -22.5111L219.917 -21.7193C219.057 -21.0509 217.463 -20.471 213.611 -19.4259C213.262 -19.3312 212.405 -19.6283 211.707 -20.0861ZM96.865 -27.9633C96.2834 -28.055 94.8666 -28.5513 93.7165 -29.0662L91.6255 -30.0025L94.5625 -30.2135C96.1778 -30.3295 97.4995 -30.6143 97.4995 -30.8464C97.4995 -31.0785 96.3574 -31.3702 94.9615 -31.4946C93.1185 -31.6588 92.7711 -31.7744 93.6926 -31.9165C95.2355 -32.1546 95.3466 -32.8212 93.9041 -33.1847C92.8652 -33.4464 92.8728 -33.4624 94.3341 -34.0905C96.8665 -35.179 99.5639 -35.3875 101.954 -34.6795C103.916 -34.0982 104.222 -34.1007 105.148 -34.7053C105.802 -35.133 106.19 -35.2045 106.224 -34.9037C106.253 -34.6449 106.3 -34.2117 106.329 -33.9409C106.428 -33.0267 107.271 -33.145 108.278 -34.2141C109.21 -35.2038 110.826 -35.6779 110.822 -34.9607C110.821 -34.7866 110.445 -34.0297 109.986 -33.2786L109.151 -31.913L110.516 -31.2026L111.881 -30.4922L109.64 -29.4717C107.618 -28.5508 107.203 -28.4981 105.39 -28.932C103.632 -29.3526 103.128 -29.3045 101.357 -28.5472C99.3566 -27.6918 98.9348 -27.637 96.865 -27.9633ZM113.83 -28.2606C113.448 -28.7198 113.605 -28.9458 114.593 -29.3538C115.28 -29.6378 116.266 -29.7324 116.794 -29.5652C117.71 -29.2751 117.689 -29.2295 116.296 -28.4896C114.52 -27.5457 114.431 -27.5375 113.83 -28.2606ZM230.53 -30.2135C231.351 -30.7422 231.799 -30.7422 231.799 -30.2135C231.799 -29.9814 231.371 -29.7944 230.848 -29.798C230.078 -29.8032 230.017 -29.8827 230.53 -30.2135ZM308.149 -31.3842C305.987 -32.2363 306.031 -32.1897 306.661 -32.9461C306.955 -33.2998 307.03 -33.5953 306.827 -33.6027C306.624 -33.6101 306.838 -33.9031 307.303 -34.2538C307.769 -34.6045 308.153 -35.0257 308.157 -35.1898C308.171 -35.814 309.893 -37.4599 311.11 -38.013C311.808 -38.3302 313.617 -38.6877 315.129 -38.8075C316.641 -38.9273 318.667 -39.1467 319.63 -39.2951C320.655 -39.4531 321.491 -39.3885 321.645 -39.1393C321.945 -38.6552 321.373 -38.4495 318.09 -37.8611C314.832 -37.2772 312.874 -36.3673 311.584 -34.8382C310.225 -33.2274 310.18 -32.2103 311.428 -31.342L312.379 -30.6797L311.11 -30.6986C310.412 -30.7089 309.08 -31.0175 308.149 -31.3842ZM86.6095 -32.6076C85.9273 -33.2882 86.0828 -33.4363 89.3557 -35.2237C93.1905 -37.318 95.1174 -37.596 98.557 -36.5513L100.46 -35.9731L97.9225 -35.4711C95.8469 -35.0605 91.4482 -33.5931 87.9746 -32.1525C87.6203 -32.0056 87.0086 -32.2095 86.6095 -32.6076ZM117.169 -33.1538C117.169 -33.3785 116.645 -33.862 116.005 -34.2284L114.842 -34.8944L116.4 -34.6501C117.506 -34.4764 118.057 -34.5799 118.303 -35.0073C118.595 -35.5157 121.288 -36.533 122.361 -36.5407C122.542 -36.5422 122.394 -35.9741 122.034 -35.2786C121.185 -33.6406 117.169 -31.8866 117.169 -33.1538ZM123.754 -34.3859C123.148 -35.3641 127.287 -36.8783 129.045 -36.3216C130.327 -35.9159 129.47 -35.2187 127.235 -34.8481C126.235 -34.6822 125.103 -34.4131 124.72 -34.2501C124.336 -34.0871 123.902 -34.1482 123.754 -34.3859ZM137.261 -37.4932C134.469 -37.7147 132.133 -37.9442 132.069 -38.0031C131.691 -38.3532 132.634 -39.4928 133.649 -39.9123C134.648 -40.3248 135.108 -40.2701 136.474 -39.5762C137.806 -38.8999 138.665 -38.7875 141.139 -38.9654C142.807 -39.0853 144.711 -39.0474 145.369 -38.8811L146.567 -38.5788L145.086 -37.7896C144.272 -37.3556 143.32 -37.0207 142.971 -37.0454C142.622 -37.0702 140.052 -37.2717 137.261 -37.4932ZM258.988 -39.2178C256.911 -40.279 256.71 -40.7602 258.342 -40.7693C258.982 -40.7729 259.791 -40.9806 260.14 -41.2311C260.688 -41.6247 260.681 -41.6569 260.086 -41.4686C259.707 -41.3488 259.176 -41.4718 258.905 -41.7417C258.531 -42.115 258.336 -42.1084 258.091 -41.7141C257.865 -41.3491 257.401 -41.3059 256.523 -41.5682C254.292 -42.2346 253.795 -42.5304 253.795 -43.1911C253.795 -43.7508 254.354 -43.802 257.813 -43.5594C260.448 -43.3747 261.832 -43.4259 261.832 -43.7081C261.832 -44.5388 263.005 -44.1286 263.317 -43.1892L263.631 -42.2397L263.818 -43.1892C263.921 -43.7114 264.278 -44.1386 264.611 -44.1386C264.944 -44.1386 265.216 -44.3665 265.216 -44.645C265.216 -45.0388 265.329 -45.0388 265.723 -44.645C266.019 -44.3504 267.434 -44.1386 269.107 -44.1386C272.131 -44.1386 272.842 -43.5992 270.825 -42.8343C269.777 -42.4367 267.954 -42.5492 265.956 -43.1346C265.549 -43.2539 265.217 -43.1963 265.218 -43.0066C265.221 -42.6172 267.598 -41.1848 268.241 -41.1848C268.472 -41.1848 268.927 -40.9184 269.254 -40.5928C269.763 -40.0848 269.758 -39.967 269.223 -39.7621C268.88 -39.6308 268.6 -39.7285 268.6 -39.9791C268.6 -40.2737 268.062 -40.3341 267.078 -40.1499C266.012 -39.9505 265.642 -40.0052 265.845 -40.3324C266.004 -40.5895 265.905 -41.0763 265.623 -41.4143C265.081 -42.0663 263.524 -42.2659 263.524 -41.6834C263.524 -41.4935 262.905 -40.6558 262.149 -39.8219L260.774 -38.3057L258.988 -39.2178ZM146.778 -40.1461C146.045 -40.5755 145.007 -40.6999 143.394 -40.5518C141.886 -40.4135 140.727 -40.5328 140.099 -40.8909C139.233 -41.3847 139.445 -41.441 142.087 -41.4197C145.39 -41.393 146.841 -42.0985 145.052 -42.8615C144.202 -43.224 144.326 -43.2569 145.783 -43.0556C147.685 -42.7928 148.424 -43.3011 147.388 -44.159C146.283 -45.0739 147.498 -45.3579 151.429 -45.1038C153.862 -44.9465 155.391 -45.0347 156.016 -45.3684C157.213 -46.0076 156.744 -46.8212 155.375 -46.4786C154.429 -46.2418 147.866 -46.6304 148.143 -46.9068C148.341 -47.1043 157.64 -47.9634 163.746 -48.3483C166.913 -48.548 170.434 -48.8265 171.571 -48.9672L173.638 -49.2231L170.226 -47.5881C167.027 -46.0551 161.824 -44.5606 159.687 -44.5606C159.167 -44.5606 157.671 -43.9909 156.363 -43.2947C155.055 -42.5984 153.723 -42.0288 153.402 -42.0288C153.081 -42.0288 151.698 -41.4615 150.327 -40.7682C148.957 -40.0749 147.836 -39.5119 147.836 -39.5172C147.836 -39.5225 147.36 -39.8055 146.778 -40.1461ZM138.53 -44.0013C136.48 -44.4538 136.405 -44.624 137.911 -45.4029C140.107 -46.5383 142.185 -46.8293 143.13 -46.1338C143.878 -45.5831 143.834 -45.498 142.365 -44.6333C140.834 -43.7321 140.213 -43.6298 138.53 -44.0013Z" fill="#3B86BC"/>
</g>
</svg>
